<svg xmlns="http://www.w3.org/2000/svg" xmlns:xlink="http://www.w3.org/1999/xlink" version="1.1" width="391px" height="199px" viewBox="-0.5 -0.5 391 199"><defs><clipPath id="mx-clip-244-39-132-26-0"><rect x="244" y="39" width="132" height="26"/></clipPath><clipPath id="mx-clip-244-65-132-26-0"><rect x="244" y="65" width="132" height="26"/></clipPath><clipPath id="mx-clip-15-65-132-26-0"><rect x="15" y="65" width="132" height="26"/></clipPath><clipPath id="mx-clip-15-91-132-26-0"><rect x="15" y="91" width="132" height="26"/></clipPath><clipPath id="mx-clip-15-117-132-26-0"><rect x="15" y="117" width="132" height="26"/></clipPath><clipPath id="mx-clip-244-139-132-26-0"><rect x="244" y="139" width="132" height="26"/></clipPath><clipPath id="mx-clip-244-165-132-26-0"><rect x="244" y="165" width="132" height="26"/></clipPath></defs><g><rect x="0" y="0" width="390" height="198" fill="none" stroke="#000000" pointer-events="all"/><path d="M 240 34 L 240 8 L 380 8 L 380 34" fill="#cda2be" stroke="#000000" stroke-miterlimit="10" pointer-events="all"/><path d="M 240 34 L 240 86 L 380 86 L 380 34" fill="none" stroke="#000000" stroke-miterlimit="10" pointer-events="none"/><path d="M 240 34 L 380 34" fill="none" stroke="#000000" stroke-miterlimit="10" pointer-events="none"/><g fill="#000000" font-family="Helvetica" pointer-events="none" text-anchor="middle" font-size="12px"><text x="309.5" y="25.5">Employee</text></g><rect x="240" y="34" width="140" height="26" fill="#a9c4eb" stroke="none" pointer-events="none"/><g fill="#000000" font-family="Helvetica" pointer-events="none" clip-path="url(#mx-clip-244-39-132-26-0)" font-size="12px"><text x="245.5" y="51.5">Employee ID</text></g><rect x="240" y="60" width="140" height="26" fill="#a9c4eb" stroke="none" pointer-events="none"/><g fill="#000000" font-family="Helvetica" pointer-events="none" clip-path="url(#mx-clip-244-65-132-26-0)" font-size="12px"><text x="245.5" y="77.5">Name</text></g><path d="M 11 60 L 11 34 L 151 34 L 151 60" fill="#cda2be" stroke="#000000" stroke-miterlimit="10" pointer-events="none"/><path d="M 11 60 L 11 138 L 151 138 L 151 60" fill="none" stroke="#000000" stroke-miterlimit="10" pointer-events="none"/><path d="M 11 60 L 151 60" fill="none" stroke="#000000" stroke-miterlimit="10" pointer-events="none"/><g fill="#000000" font-family="Helvetica" pointer-events="none" text-anchor="middle" font-size="12px"><text x="80.5" y="51.5">Employee</text></g><rect x="11" y="60" width="140" height="26" fill="#a9c4eb" stroke="none" pointer-events="none"/><g fill="#000000" font-family="Helvetica" pointer-events="none" clip-path="url(#mx-clip-15-65-132-26-0)" font-size="12px"><text x="16.5" y="77.5">Employee ID</text></g><rect x="11" y="86" width="140" height="26" fill="#a9c4eb" stroke="none" pointer-events="none"/><g fill="#000000" font-family="Helvetica" pointer-events="none" clip-path="url(#mx-clip-15-91-132-26-0)" font-size="12px"><text x="16.5" y="103.5">Name</text></g><rect x="11" y="112" width="140" height="26" fill="#a9c4eb" stroke="none" pointer-events="none"/><g fill="#000000" font-family="Helvetica" pointer-events="none" clip-path="url(#mx-clip-15-117-132-26-0)" font-size="12px"><text x="16.5" y="129.5">Picture</text></g><path d="M 240 134 L 240 108 L 380 108 L 380 134" fill="#cda2be" stroke="#000000" stroke-miterlimit="10" pointer-events="none"/><path d="M 240 134 L 240 186 L 380 186 L 380 134" fill="none" stroke="#000000" stroke-miterlimit="10" pointer-events="none"/><path d="M 240 134 L 380 134" fill="none" stroke="#000000" stroke-miterlimit="10" pointer-events="none"/><g fill="#000000" font-family="Helvetica" pointer-events="none" text-anchor="middle" font-size="12px"><text x="309.5" y="125.5">EmployeePicture</text></g><rect x="240" y="134" width="140" height="26" fill="#a9c4eb" stroke="none" pointer-events="none"/><g fill="#000000" font-family="Helvetica" pointer-events="none" clip-path="url(#mx-clip-244-139-132-26-0)" font-size="12px"><text x="245.5" y="151.5">Employee ID</text></g><rect x="240" y="160" width="140" height="26" fill="#a9c4eb" stroke="none" pointer-events="none"/><g fill="#000000" font-family="Helvetica" pointer-events="none" clip-path="url(#mx-clip-244-165-132-26-0)" font-size="12px"><text x="245.5" y="177.5">Picture</text></g><path d="M 150 98 L 185 98 Q 195 98 195 88 L 195 57 Q 195 47 205 47 L 233.63 47" fill="none" stroke="#000000" stroke-miterlimit="10" pointer-events="none"/><path d="M 238.88 47 L 231.88 50.5 L 233.63 47 L 231.88 43.5 Z" fill="#000000" stroke="#000000" stroke-miterlimit="10" pointer-events="none"/><path d="M 151 99 L 186 99 Q 196 99 196 109 L 196 137 Q 196 147 206 147 L 233.63 147" fill="none" stroke="#000000" stroke-miterlimit="10" pointer-events="none"/><path d="M 238.88 147 L 231.88 150.5 L 233.63 147 L 231.88 143.5 Z" fill="#000000" stroke="#000000" stroke-miterlimit="10" pointer-events="none"/></g></svg>