<svg xmlns="http://www.w3.org/2000/svg" xmlns:xlink="http://www.w3.org/1999/xlink" version="1.1" width="751px" height="401px" viewBox="-0.5 -0.5 751 401"><defs/><g><rect x="0" y="0" width="750" height="400" fill="none" stroke="#000000" pointer-events="all"/><rect x="10" y="33.28" width="330.24" height="167.21" rx="25.08" ry="25.08" fill="#fafafa" stroke="#ababab" pointer-events="all"/><path d="M 124.13 72.3 L 233.06 72.3" fill="none" stroke="#000000" stroke-miterlimit="10" pointer-events="stroke"/><path d="M 118.88 72.3 L 125.88 68.8 L 124.13 72.3 L 125.88 75.8 Z" fill="#000000" stroke="#000000" stroke-miterlimit="10" pointer-events="all"/><path d="M 238.31 72.3 L 231.31 75.8 L 233.06 72.3 L 231.31 68.8 Z" fill="#000000" stroke="#000000" stroke-miterlimit="10" pointer-events="all"/><path d="M 232.83 157.73 L 284.27 110.6" fill="none" stroke="#000000" stroke-miterlimit="10" pointer-events="stroke"/><path d="M 228.96 161.28 L 231.75 153.97 L 232.83 157.73 L 236.48 159.13 Z" fill="#000000" stroke="#000000" stroke-miterlimit="10" pointer-events="all"/><path d="M 288.14 107.05 L 285.34 114.36 L 284.27 110.6 L 280.61 109.2 Z" fill="#000000" stroke="#000000" stroke-miterlimit="10" pointer-events="all"/><path d="M 120.22 158.09 L 73.59 111.36" fill="none" stroke="#000000" stroke-miterlimit="10" pointer-events="stroke"/><path d="M 123.92 161.8 L 116.5 159.32 L 120.22 158.09 L 121.46 154.37 Z" fill="#000000" stroke="#000000" stroke-miterlimit="10" pointer-events="all"/><path d="M 69.88 107.65 L 77.31 110.13 L 73.59 111.36 L 72.35 115.07 Z" fill="#000000" stroke="#000000" stroke-miterlimit="10" pointer-events="all"/><rect x="21.49" y="41.28" width="90" height="60" rx="9" ry="9" fill="none" stroke="#ababab" stroke-dasharray="3 3" pointer-events="all"/><path d="M 36.07 68.73 C 36.07 66.06 79.52 66.06 79.52 68.73 L 79.52 75.87 C 79.52 78.54 36.07 78.54 36.07 75.87 Z" fill="#e6e6e6" stroke="none" pointer-events="all"/><path d="M 36.07 68.73 C 36.07 70.73 79.52 70.73 79.52 68.73" fill="none" stroke="none" pointer-events="all"/><ellipse cx="57.8" cy="68.82" rx="21.726190476190478" ry="2.0901392709766156" fill="#cccccc" stroke="none" pointer-events="all"/><path d="M 44.76 74.3 C 44.76 71.63 88.21 71.63 88.21 74.3 L 88.21 81.45 C 88.21 84.11 44.76 84.11 44.76 81.45 Z" fill="#e6e6e6" stroke="none" pointer-events="all"/><path d="M 44.76 74.3 C 44.76 76.3 88.21 76.3 88.21 74.3" fill="none" stroke="none" pointer-events="all"/><ellipse cx="66.49" cy="74.39" rx="21.726190476190478" ry="2.0901392709766156" fill="#cccccc" stroke="none" pointer-events="all"/><path d="M 53.45 79.87 C 53.45 77.21 96.9 77.21 96.9 79.87 L 96.9 87.02 C 96.9 89.69 53.45 89.69 53.45 87.02 Z" fill="#e6e6e6" stroke="none" pointer-events="all"/><path d="M 53.45 79.87 C 53.45 81.87 96.9 81.87 96.9 79.87" fill="none" stroke="none" pointer-events="all"/><ellipse cx="75.18" cy="79.96" rx="21.726190476190478" ry="2.0901392709766156" fill="#cccccc" stroke="none" pointer-events="all"/><rect x="29.55" y="42.43" width="80.45" height="11.15" fill="none" stroke="none" pointer-events="all"/><g transform="translate(-0.5 -0.5)"><switch><foreignObject style="overflow: visible; text-align: left;" pointer-events="none" width="100%" height="100%" requiredFeatures="http://www.w3.org/TR/SVG11/feature#Extensibility"><div xmlns="http://www.w3.org/1999/xhtml" style="display: flex; align-items: unsafe center; justify-content: unsafe center; width: 78px; height: 1px; padding-top: 48px; margin-left: 31px;"><div style="box-sizing: border-box; font-size: 0; text-align: center; "><div style="display: inline-block; font-size: 12px; font-family: Helvetica; color: #000000; line-height: 1.2; pointer-events: all; white-space: normal; word-wrap: normal; "><font color="#454545">Data center 1</font></div></div></div></foreignObject><text x="70" y="52" fill="#000000" font-family="Helvetica" font-size="12px" text-anchor="middle">Data center 1</text></switch></g><path d="M 258.55 63.15 C 258.55 60.48 302 60.48 302 63.15 L 302 70.3 C 302 72.97 258.55 72.97 258.55 70.3 Z" fill="#cbd9f5" stroke="none" pointer-events="all"/><path d="M 258.55 63.15 C 258.55 65.15 302 65.15 302 63.15" fill="none" stroke="none" pointer-events="all"/><ellipse cx="280.27" cy="63.24" rx="21.726190476190478" ry="2.0901392709766156" fill="#8ebbfc" stroke="none" pointer-events="all"/><path d="M 267.24 68.73 C 267.24 66.06 310.69 66.06 310.69 68.73 L 310.69 75.87 C 310.69 78.54 267.24 78.54 267.24 75.87 Z" fill="#cbd9f5" stroke="none" pointer-events="all"/><path d="M 267.24 68.73 C 267.24 70.73 310.69 70.73 310.69 68.73" fill="none" stroke="none" pointer-events="all"/><ellipse cx="288.96" cy="68.82" rx="21.726190476190478" ry="2.0901392709766156" fill="#8ebbfc" stroke="none" pointer-events="all"/><path d="M 275.93 74.3 C 275.93 71.63 319.38 71.63 319.38 74.3 L 319.38 81.45 C 319.38 84.11 275.93 84.11 275.93 81.45 Z" fill="#cbd9f5" stroke="none" pointer-events="all"/><path d="M 275.93 74.3 C 275.93 76.3 319.38 76.3 319.38 74.3" fill="none" stroke="none" pointer-events="all"/><ellipse cx="297.65" cy="74.39" rx="21.726190476190478" ry="2.0901392709766156" fill="#8ebbfc" stroke="none" pointer-events="all"/><rect x="244.64" y="41.28" width="90" height="60" rx="9" ry="9" fill="none" stroke="#6d90c2" stroke-dasharray="3 3" pointer-events="all"/><rect x="252.03" y="44.43" width="73.87" height="11.15" fill="none" stroke="none" pointer-events="all"/><g transform="translate(-0.5 -0.5)"><switch><foreignObject style="overflow: visible; text-align: left;" pointer-events="none" width="100%" height="100%" requiredFeatures="http://www.w3.org/TR/SVG11/feature#Extensibility"><div xmlns="http://www.w3.org/1999/xhtml" style="display: flex; align-items: unsafe center; justify-content: unsafe center; width: 72px; height: 1px; padding-top: 50px; margin-left: 253px;"><div style="box-sizing: border-box; font-size: 0; text-align: center; "><div style="display: inline-block; font-size: 12px; font-family: Helvetica; color: #000000; line-height: 1.2; pointer-events: all; white-space: normal; word-wrap: normal; "><font color="#00468c">Data center n</font></div></div></div></foreignObject><text x="289" y="54" fill="#000000" font-family="Helvetica" font-size="12px" text-anchor="middle">Data center n</text></switch></g><path d="M 144.7 157.9 C 144.7 155.24 188.15 155.24 188.15 157.9 L 188.15 165.05 C 188.15 167.72 144.7 167.72 144.7 165.05 Z" fill="#e1d5e7" stroke="none" pointer-events="all"/><path d="M 144.7 157.9 C 144.7 159.9 188.15 159.9 188.15 157.9" fill="none" stroke="none" pointer-events="all"/><ellipse cx="166.43" cy="157.99" rx="21.726190476190478" ry="2.0901392709766156" fill="#dec7e7" stroke="none" pointer-events="all"/><path d="M 153.39 163.48 C 153.39 160.81 196.85 160.81 196.85 163.48 L 196.85 170.63 C 196.85 173.29 153.39 173.29 153.39 170.63 Z" fill="#e1d5e7" stroke="none" pointer-events="all"/><path d="M 153.39 163.48 C 153.39 165.48 196.85 165.48 196.85 163.48" fill="none" stroke="none" pointer-events="all"/><ellipse cx="175.12" cy="163.57" rx="21.726190476190478" ry="2.0901392709766156" fill="#dec7e7" stroke="none" pointer-events="all"/><path d="M 162.08 169.05 C 162.08 166.39 205.54 166.39 205.54 169.05 L 205.54 176.2 C 205.54 178.87 162.08 178.87 162.08 176.2 Z" fill="#e1d5e7" stroke="none" pointer-events="all"/><path d="M 162.08 169.05 C 162.08 171.05 205.54 171.05 205.54 169.05" fill="none" stroke="none" pointer-events="all"/><ellipse cx="183.81" cy="169.14" rx="21.726190476190478" ry="2.0901392709766156" fill="#dec7e7" stroke="none" pointer-events="all"/><rect x="132.91" y="134.92" width="90" height="60" rx="9" ry="9" fill="none" stroke="#ba93ad" stroke-dasharray="3 3" pointer-events="all"/><rect x="138.18" y="138.18" width="73.87" height="11.15" fill="none" stroke="none" pointer-events="all"/><g transform="translate(-0.5 -0.5)"><switch><foreignObject style="overflow: visible; text-align: left;" pointer-events="none" width="100%" height="100%" requiredFeatures="http://www.w3.org/TR/SVG11/feature#Extensibility"><div xmlns="http://www.w3.org/1999/xhtml" style="display: flex; align-items: unsafe center; justify-content: unsafe center; width: 72px; height: 1px; padding-top: 144px; margin-left: 139px;"><div style="box-sizing: border-box; font-size: 0; text-align: center; "><div style="display: inline-block; font-size: 12px; font-family: Helvetica; color: #000000; line-height: 1.2; pointer-events: all; white-space: normal; word-wrap: normal; "><font color="#9e6489">Data center 2</font></div></div></div></foreignObject><text x="175" y="147" fill="#000000" font-family="Helvetica" font-size="12px" text-anchor="middle">Data center 2</text></switch></g><rect x="212.49" y="222.79" width="330.24" height="167.21" rx="25.08" ry="25.08" fill="#fafafa" stroke="#ababab" pointer-events="all"/><path d="M 324.01 261.8 L 432.94 261.8" fill="none" stroke="#000000" stroke-miterlimit="10" pointer-events="stroke"/><path d="M 318.76 261.8 L 325.76 258.3 L 324.01 261.8 L 325.76 265.3 Z" fill="#000000" stroke="#000000" stroke-miterlimit="10" pointer-events="all"/><path d="M 438.19 261.8 L 431.19 265.3 L 432.94 261.8 L 431.19 258.3 Z" fill="#000000" stroke="#000000" stroke-miterlimit="10" pointer-events="all"/><path d="M 432.71 347.24 L 484.15 300.11" fill="none" stroke="#000000" stroke-miterlimit="10" pointer-events="stroke"/><path d="M 428.84 350.79 L 431.63 343.48 L 432.71 347.24 L 436.36 348.64 Z" fill="#000000" stroke="#000000" stroke-miterlimit="10" pointer-events="all"/><path d="M 488.02 296.56 L 485.22 303.87 L 484.15 300.11 L 480.5 298.71 Z" fill="#000000" stroke="#000000" stroke-miterlimit="10" pointer-events="all"/><path d="M 320.1 347.59 L 273.47 300.87" fill="none" stroke="#000000" stroke-miterlimit="10" pointer-events="stroke"/><path d="M 323.81 351.31 L 316.38 348.82 L 320.1 347.59 L 321.34 343.88 Z" fill="#000000" stroke="#000000" stroke-miterlimit="10" pointer-events="all"/><path d="M 269.77 297.15 L 277.19 299.64 L 273.47 300.87 L 272.23 304.58 Z" fill="#000000" stroke="#000000" stroke-miterlimit="10" pointer-events="all"/><rect x="310.97" y="206.07" width="128.06" height="16.72" fill="none" stroke="none" pointer-events="all"/><g transform="translate(-0.5 -0.5)"><switch><foreignObject style="overflow: visible; text-align: left;" pointer-events="none" width="100%" height="100%" requiredFeatures="http://www.w3.org/TR/SVG11/feature#Extensibility"><div xmlns="http://www.w3.org/1999/xhtml" style="display: flex; align-items: unsafe center; justify-content: unsafe center; width: 126px; height: 1px; padding-top: 214px; margin-left: 312px;"><div style="box-sizing: border-box; font-size: 0; text-align: center; "><div style="display: inline-block; font-size: 12px; font-family: Helvetica; color: #000000; line-height: 1.2; pointer-events: all; white-space: normal; word-wrap: normal; "><span style="color: rgb(22 , 25 , 31)"><font style="font-size: 12px"><b>Asia-Pacific (Mumbai)</b></font></span></div></div></div></foreignObject><text x="375" y="218" fill="#000000" font-family="Helvetica" font-size="12px" text-anchor="middle">Asia-Pacific (Mumbai)</text></switch></g><rect x="222.92" y="229.68" width="90" height="60" rx="9" ry="9" fill="none" stroke="#ababab" stroke-dasharray="3 3" pointer-events="all"/><path d="M 235.95 258.23 C 235.95 255.56 279.4 255.56 279.4 258.23 L 279.4 265.38 C 279.4 268.05 235.95 268.05 235.95 265.38 Z" fill="#e6e6e6" stroke="none" pointer-events="all"/><path d="M 235.95 258.23 C 235.95 260.23 279.4 260.23 279.4 258.23" fill="none" stroke="none" pointer-events="all"/><ellipse cx="257.68" cy="258.32" rx="21.726190476190478" ry="2.0901392709766156" fill="#cccccc" stroke="none" pointer-events="all"/><path d="M 244.64 263.8 C 244.64 261.14 288.1 261.14 288.1 263.8 L 288.1 270.95 C 288.1 273.62 244.64 273.62 244.64 270.95 Z" fill="#e6e6e6" stroke="none" pointer-events="all"/><path d="M 244.64 263.8 C 244.64 265.8 288.1 265.8 288.1 263.8" fill="none" stroke="none" pointer-events="all"/><ellipse cx="266.37" cy="263.89" rx="21.726190476190478" ry="2.0901392709766156" fill="#cccccc" stroke="none" pointer-events="all"/><path d="M 253.33 269.38 C 253.33 266.71 296.79 266.71 296.79 269.38 L 296.79 276.53 C 296.79 279.19 253.33 279.19 253.33 276.53 Z" fill="#e6e6e6" stroke="none" pointer-events="all"/><path d="M 253.33 269.38 C 253.33 271.38 296.79 271.38 296.79 269.38" fill="none" stroke="none" pointer-events="all"/><ellipse cx="275.06" cy="269.47" rx="21.726190476190478" ry="2.0901392709766156" fill="#cccccc" stroke="none" pointer-events="all"/><rect x="229.43" y="233.94" width="73.87" height="11.15" fill="none" stroke="none" pointer-events="all"/><g transform="translate(-0.5 -0.5)"><switch><foreignObject style="overflow: visible; text-align: left;" pointer-events="none" width="100%" height="100%" requiredFeatures="http://www.w3.org/TR/SVG11/feature#Extensibility"><div xmlns="http://www.w3.org/1999/xhtml" style="display: flex; align-items: unsafe center; justify-content: unsafe center; width: 72px; height: 1px; padding-top: 240px; margin-left: 230px;"><div style="box-sizing: border-box; font-size: 0; text-align: center; "><div style="display: inline-block; font-size: 12px; font-family: Helvetica; color: #000000; line-height: 1.2; pointer-events: all; white-space: normal; word-wrap: normal; "><font color="#454545">Data center 1</font></div></div></div></foreignObject><text x="266" y="243" fill="#000000" font-family="Helvetica" font-size="12px" text-anchor="middle">Data center 1</text></switch></g><path d="M 458.43 252.66 C 458.43 249.99 501.88 249.99 501.88 252.66 L 501.88 259.8 C 501.88 262.47 458.43 262.47 458.43 259.8 Z" fill="#cbd9f5" stroke="none" pointer-events="all"/><path d="M 458.43 252.66 C 458.43 254.66 501.88 254.66 501.88 252.66" fill="none" stroke="none" pointer-events="all"/><ellipse cx="480.15" cy="252.75" rx="21.726190476190478" ry="2.0901392709766156" fill="#8ebbfc" stroke="none" pointer-events="all"/><path d="M 467.12 258.23 C 467.12 255.56 510.57 255.56 510.57 258.23 L 510.57 265.38 C 510.57 268.05 467.12 268.05 467.12 265.38 Z" fill="#cbd9f5" stroke="none" pointer-events="all"/><path d="M 467.12 258.23 C 467.12 260.23 510.57 260.23 510.57 258.23" fill="none" stroke="none" pointer-events="all"/><ellipse cx="488.85" cy="258.32" rx="21.726190476190478" ry="2.0901392709766156" fill="#8ebbfc" stroke="none" pointer-events="all"/><path d="M 475.81 263.8 C 475.81 261.14 519.26 261.14 519.26 263.8 L 519.26 270.95 C 519.26 273.62 475.81 273.62 475.81 270.95 Z" fill="#cbd9f5" stroke="none" pointer-events="all"/><path d="M 475.81 263.8 C 475.81 265.8 519.26 265.8 519.26 263.8" fill="none" stroke="none" pointer-events="all"/><ellipse cx="497.54" cy="263.89" rx="21.726190476190478" ry="2.0901392709766156" fill="#8ebbfc" stroke="none" pointer-events="all"/><rect x="444.52" y="229.68" width="90" height="60" rx="9" ry="9" fill="none" stroke="#6d90c2" stroke-dasharray="3 3" pointer-events="all"/><rect x="451.91" y="231.94" width="73.87" height="11.15" fill="none" stroke="none" pointer-events="all"/><g transform="translate(-0.5 -0.5)"><switch><foreignObject style="overflow: visible; text-align: left;" pointer-events="none" width="100%" height="100%" requiredFeatures="http://www.w3.org/TR/SVG11/feature#Extensibility"><div xmlns="http://www.w3.org/1999/xhtml" style="display: flex; align-items: unsafe center; justify-content: unsafe center; width: 72px; height: 1px; padding-top: 238px; margin-left: 453px;"><div style="box-sizing: border-box; font-size: 0; text-align: center; "><div style="display: inline-block; font-size: 12px; font-family: Helvetica; color: #000000; line-height: 1.2; pointer-events: all; white-space: normal; word-wrap: normal; "><font color="#00468c">Data center n</font></div></div></div></foreignObject><text x="489" y="241" fill="#000000" font-family="Helvetica" font-size="12px" text-anchor="middle">Data center n</text></switch></g><path d="M 344.58 347.41 C 344.58 344.74 388.04 344.74 388.04 347.41 L 388.04 354.56 C 388.04 357.22 344.58 357.22 344.58 354.56 Z" fill="#e1d5e7" stroke="none" pointer-events="all"/><path d="M 344.58 347.41 C 344.58 349.41 388.04 349.41 388.04 347.41" fill="none" stroke="none" pointer-events="all"/><ellipse cx="366.31" cy="347.5" rx="21.726190476190478" ry="2.0901392709766156" fill="#dec7e7" stroke="none" pointer-events="all"/><path d="M 353.27 352.98 C 353.27 350.32 396.73 350.32 396.73 352.98 L 396.73 360.13 C 396.73 362.8 353.27 362.8 353.27 360.13 Z" fill="#e1d5e7" stroke="none" pointer-events="all"/><path d="M 353.27 352.98 C 353.27 354.98 396.73 354.98 396.73 352.98" fill="none" stroke="none" pointer-events="all"/><ellipse cx="375" cy="353.07" rx="21.726190476190478" ry="2.0901392709766156" fill="#dec7e7" stroke="none" pointer-events="all"/><path d="M 361.96 358.56 C 361.96 355.89 405.42 355.89 405.42 358.56 L 405.42 365.71 C 405.42 368.37 361.96 368.37 361.96 365.71 Z" fill="#e1d5e7" stroke="none" pointer-events="all"/><path d="M 361.96 358.56 C 361.96 360.56 405.42 360.56 405.42 358.56" fill="none" stroke="none" pointer-events="all"/><ellipse cx="383.69" cy="358.65" rx="21.726190476190478" ry="2.0901392709766156" fill="#dec7e7" stroke="none" pointer-events="all"/><rect x="330" y="320.98" width="90" height="60" rx="9" ry="9" fill="none" stroke="#ba93ad" stroke-dasharray="3 3" pointer-events="all"/><rect x="338.07" y="328.69" width="73.87" height="11.15" fill="none" stroke="none" pointer-events="all"/><g transform="translate(-0.5 -0.5)"><switch><foreignObject style="overflow: visible; text-align: left;" pointer-events="none" width="100%" height="100%" requiredFeatures="http://www.w3.org/TR/SVG11/feature#Extensibility"><div xmlns="http://www.w3.org/1999/xhtml" style="display: flex; align-items: unsafe center; justify-content: unsafe center; width: 72px; height: 1px; padding-top: 334px; margin-left: 339px;"><div style="box-sizing: border-box; font-size: 0; text-align: center; "><div style="display: inline-block; font-size: 12px; font-family: Helvetica; color: #000000; line-height: 1.2; pointer-events: all; white-space: normal; word-wrap: normal; "><font color="#9e6489">Data center 2</font></div></div></div></foreignObject><text x="375" y="338" fill="#000000" font-family="Helvetica" font-size="12px" text-anchor="middle">Data center 2</text></switch></g><rect x="409.76" y="33.28" width="330.24" height="167.21" rx="25.08" ry="25.08" fill="#fafafa" stroke="#ababab" pointer-events="all"/><path d="M 523.89 72.3 L 632.82 72.3" fill="none" stroke="#000000" stroke-miterlimit="10" pointer-events="stroke"/><path d="M 518.64 72.3 L 525.64 68.8 L 523.89 72.3 L 525.64 75.8 Z" fill="#000000" stroke="#000000" stroke-miterlimit="10" pointer-events="all"/><path d="M 638.07 72.3 L 631.07 75.8 L 632.82 72.3 L 631.07 68.8 Z" fill="#000000" stroke="#000000" stroke-miterlimit="10" pointer-events="all"/><path d="M 632.59 157.73 L 684.03 110.6" fill="none" stroke="#000000" stroke-miterlimit="10" pointer-events="stroke"/><path d="M 628.72 161.28 L 631.51 153.97 L 632.59 157.73 L 636.24 159.13 Z" fill="#000000" stroke="#000000" stroke-miterlimit="10" pointer-events="all"/><path d="M 687.9 107.05 L 685.11 114.36 L 684.03 110.6 L 680.38 109.2 Z" fill="#000000" stroke="#000000" stroke-miterlimit="10" pointer-events="all"/><path d="M 519.98 158.09 L 473.36 111.36" fill="none" stroke="#000000" stroke-miterlimit="10" pointer-events="stroke"/><path d="M 523.69 161.8 L 516.26 159.32 L 519.98 158.09 L 521.22 154.37 Z" fill="#000000" stroke="#000000" stroke-miterlimit="10" pointer-events="all"/><path d="M 469.65 107.65 L 477.07 110.13 L 473.36 111.36 L 472.11 115.07 Z" fill="#000000" stroke="#000000" stroke-miterlimit="10" pointer-events="all"/><rect x="422.31" y="36.72" width="90" height="60" rx="9" ry="9" fill="none" stroke="#ababab" stroke-dasharray="3 3" pointer-events="all"/><path d="M 435.83 68.73 C 435.83 66.06 479.29 66.06 479.29 68.73 L 479.29 75.87 C 479.29 78.54 435.83 78.54 435.83 75.87 Z" fill="#e6e6e6" stroke="none" pointer-events="all"/><path d="M 435.83 68.73 C 435.83 70.73 479.29 70.73 479.29 68.73" fill="none" stroke="none" pointer-events="all"/><ellipse cx="457.56" cy="68.82" rx="21.726190476190478" ry="2.0901392709766156" fill="#cccccc" stroke="none" pointer-events="all"/><path d="M 444.52 74.3 C 444.52 71.63 487.98 71.63 487.98 74.3 L 487.98 81.45 C 487.98 84.11 444.52 84.11 444.52 81.45 Z" fill="#e6e6e6" stroke="none" pointer-events="all"/><path d="M 444.52 74.3 C 444.52 76.3 487.98 76.3 487.98 74.3" fill="none" stroke="none" pointer-events="all"/><ellipse cx="466.25" cy="74.39" rx="21.726190476190478" ry="2.0901392709766156" fill="#cccccc" stroke="none" pointer-events="all"/><path d="M 453.21 79.87 C 453.21 77.21 496.67 77.21 496.67 79.87 L 496.67 87.02 C 496.67 89.69 453.21 89.69 453.21 87.02 Z" fill="#e6e6e6" stroke="none" pointer-events="all"/><path d="M 453.21 79.87 C 453.21 81.87 496.67 81.87 496.67 79.87" fill="none" stroke="none" pointer-events="all"/><ellipse cx="474.94" cy="79.96" rx="21.726190476190478" ry="2.0901392709766156" fill="#cccccc" stroke="none" pointer-events="all"/><rect x="429.32" y="44.43" width="73.87" height="11.15" fill="none" stroke="none" pointer-events="all"/><g transform="translate(-0.5 -0.5)"><switch><foreignObject style="overflow: visible; text-align: left;" pointer-events="none" width="100%" height="100%" requiredFeatures="http://www.w3.org/TR/SVG11/feature#Extensibility"><div xmlns="http://www.w3.org/1999/xhtml" style="display: flex; align-items: unsafe center; justify-content: unsafe center; width: 72px; height: 1px; padding-top: 50px; margin-left: 430px;"><div style="box-sizing: border-box; font-size: 0; text-align: center; "><div style="display: inline-block; font-size: 12px; font-family: Helvetica; color: #000000; line-height: 1.2; pointer-events: all; white-space: normal; word-wrap: normal; "><font color="#454545">Data center 1</font></div></div></div></foreignObject><text x="466" y="54" fill="#000000" font-family="Helvetica" font-size="12px" text-anchor="middle">Data center 1</text></switch></g><path d="M 658.31 63.15 C 658.31 60.48 701.76 60.48 701.76 63.15 L 701.76 70.3 C 701.76 72.97 658.31 72.97 658.31 70.3 Z" fill="#cbd9f5" stroke="none" pointer-events="all"/><path d="M 658.31 63.15 C 658.31 65.15 701.76 65.15 701.76 63.15" fill="none" stroke="none" pointer-events="all"/><ellipse cx="680.04" cy="63.24" rx="21.726190476190478" ry="2.0901392709766156" fill="#8ebbfc" stroke="none" pointer-events="all"/><path d="M 667 68.73 C 667 66.06 710.45 66.06 710.45 68.73 L 710.45 75.87 C 710.45 78.54 667 78.54 667 75.87 Z" fill="#cbd9f5" stroke="none" pointer-events="all"/><path d="M 667 68.73 C 667 70.73 710.45 70.73 710.45 68.73" fill="none" stroke="none" pointer-events="all"/><ellipse cx="688.73" cy="68.82" rx="21.726190476190478" ry="2.0901392709766156" fill="#8ebbfc" stroke="none" pointer-events="all"/><path d="M 675.69 74.3 C 675.69 71.63 719.14 71.63 719.14 74.3 L 719.14 81.45 C 719.14 84.11 675.69 84.11 675.69 81.45 Z" fill="#cbd9f5" stroke="none" pointer-events="all"/><path d="M 675.69 74.3 C 675.69 76.3 719.14 76.3 719.14 74.3" fill="none" stroke="none" pointer-events="all"/><ellipse cx="697.42" cy="74.39" rx="21.726190476190478" ry="2.0901392709766156" fill="#8ebbfc" stroke="none" pointer-events="all"/><rect x="643.72" y="41.28" width="90" height="60" rx="9" ry="9" fill="none" stroke="#6d90c2" stroke-dasharray="3 3" pointer-events="all"/><rect x="651.79" y="44.43" width="73.87" height="11.15" fill="none" stroke="none" pointer-events="all"/><g transform="translate(-0.5 -0.5)"><switch><foreignObject style="overflow: visible; text-align: left;" pointer-events="none" width="100%" height="100%" requiredFeatures="http://www.w3.org/TR/SVG11/feature#Extensibility"><div xmlns="http://www.w3.org/1999/xhtml" style="display: flex; align-items: unsafe center; justify-content: unsafe center; width: 72px; height: 1px; padding-top: 50px; margin-left: 653px;"><div style="box-sizing: border-box; font-size: 0; text-align: center; "><div style="display: inline-block; font-size: 12px; font-family: Helvetica; color: #000000; line-height: 1.2; pointer-events: all; white-space: normal; word-wrap: normal; "><font color="#00468c">Data center n</font></div></div></div></foreignObject><text x="689" y="54" fill="#000000" font-family="Helvetica" font-size="12px" text-anchor="middle">Data center n</text></switch></g><path d="M 544.46 157.9 C 544.46 155.24 587.92 155.24 587.92 157.9 L 587.92 165.05 C 587.92 167.72 544.46 167.72 544.46 165.05 Z" fill="#e1d5e7" stroke="none" pointer-events="all"/><path d="M 544.46 157.9 C 544.46 159.9 587.92 159.9 587.92 157.9" fill="none" stroke="none" pointer-events="all"/><ellipse cx="566.19" cy="157.99" rx="21.726190476190478" ry="2.0901392709766156" fill="#dec7e7" stroke="none" pointer-events="all"/><path d="M 553.15 163.48 C 553.15 160.81 596.61 160.81 596.61 163.48 L 596.61 170.63 C 596.61 173.29 553.15 173.29 553.15 170.63 Z" fill="#e1d5e7" stroke="none" pointer-events="all"/><path d="M 553.15 163.48 C 553.15 165.48 596.61 165.48 596.61 163.48" fill="none" stroke="none" pointer-events="all"/><ellipse cx="574.88" cy="163.57" rx="21.726190476190478" ry="2.0901392709766156" fill="#dec7e7" stroke="none" pointer-events="all"/><path d="M 561.85 169.05 C 561.85 166.39 605.3 166.39 605.3 169.05 L 605.3 176.2 C 605.3 178.87 561.85 178.87 561.85 176.2 Z" fill="#e1d5e7" stroke="none" pointer-events="all"/><path d="M 561.85 169.05 C 561.85 171.05 605.3 171.05 605.3 169.05" fill="none" stroke="none" pointer-events="all"/><ellipse cx="583.57" cy="169.14" rx="21.726190476190478" ry="2.0901392709766156" fill="#dec7e7" stroke="none" pointer-events="all"/><rect x="529.88" y="134.92" width="90" height="60" rx="9" ry="9" fill="none" stroke="#ba93ad" stroke-dasharray="3 3" pointer-events="all"/><rect x="537.95" y="139.18" width="73.87" height="11.15" fill="none" stroke="none" pointer-events="all"/><g transform="translate(-0.5 -0.5)"><switch><foreignObject style="overflow: visible; text-align: left;" pointer-events="none" width="100%" height="100%" requiredFeatures="http://www.w3.org/TR/SVG11/feature#Extensibility"><div xmlns="http://www.w3.org/1999/xhtml" style="display: flex; align-items: unsafe center; justify-content: unsafe center; width: 72px; height: 1px; padding-top: 145px; margin-left: 539px;"><div style="box-sizing: border-box; font-size: 0; text-align: center; "><div style="display: inline-block; font-size: 12px; font-family: Helvetica; color: #000000; line-height: 1.2; pointer-events: all; white-space: normal; word-wrap: normal; "><font color="#9e6489">Data center 2</font></div></div></div></foreignObject><text x="575" y="148" fill="#000000" font-family="Helvetica" font-size="12px" text-anchor="middle">Data center 2</text></switch></g><path d="M 86.04 55.58 L 97.42 55.58 L 103.42 61.58 L 103.42 71.18 L 86.04 71.18 L 86.04 55.58 Z" fill="#ffd966" stroke="#000000" stroke-miterlimit="10" pointer-events="all"/><path d="M 97.42 55.58 L 97.42 61.58 L 103.42 61.58 Z" fill-opacity="0.05" fill="#000000" stroke="none" pointer-events="all"/><path d="M 97.42 55.58 L 97.42 61.58 L 103.42 61.58" fill="none" stroke="#000000" stroke-miterlimit="10" pointer-events="all"/><path d="M 202.56 150.62 L 213.94 150.62 L 219.94 156.62 L 219.94 166.22 L 202.56 166.22 L 202.56 150.62 Z" fill="#fff2cc" stroke="#000000" stroke-miterlimit="10" pointer-events="all"/><path d="M 213.94 150.62 L 213.94 156.62 L 219.94 156.62 Z" fill-opacity="0.05" fill="#000000" stroke="none" pointer-events="all"/><path d="M 213.94 150.62 L 213.94 156.62 L 219.94 156.62" fill="none" stroke="#000000" stroke-miterlimit="10" pointer-events="all"/><path d="M 514.31 245.37 L 525.69 245.37 L 531.69 251.37 L 531.69 260.98 L 514.31 260.98 L 514.31 245.37 Z" fill="#fff2cc" stroke="#000000" stroke-miterlimit="10" pointer-events="all"/><path d="M 525.69 245.37 L 525.69 251.37 L 531.69 251.37 Z" fill-opacity="0.05" fill="#000000" stroke="none" pointer-events="all"/><path d="M 525.69 245.37 L 525.69 251.37 L 531.69 251.37" fill="none" stroke="#000000" stroke-miterlimit="10" pointer-events="all"/><path d="M 649.62 313.08 L 661 313.08 L 667 319.08 L 667 328.69 L 649.62 328.69 L 649.62 313.08 Z" fill="#ffd966" stroke="#000000" stroke-miterlimit="10" pointer-events="all"/><path d="M 661 313.08 L 661 319.08 L 667 319.08 Z" fill-opacity="0.05" fill="#000000" stroke="none" pointer-events="all"/><path d="M 661 313.08 L 661 319.08 L 667 319.08" fill="none" stroke="#000000" stroke-miterlimit="10" pointer-events="all"/><path d="M 650.05 339.84 L 661.43 339.84 L 667.43 345.84 L 667.43 355.44 L 650.05 355.44 L 650.05 339.84 Z" fill="#fff2cc" stroke="#000000" stroke-miterlimit="10" pointer-events="all"/><path d="M 661.43 339.84 L 661.43 345.84 L 667.43 345.84 Z" fill-opacity="0.05" fill="#000000" stroke="none" pointer-events="all"/><path d="M 661.43 339.84 L 661.43 345.84 L 667.43 345.84" fill="none" stroke="#000000" stroke-miterlimit="10" pointer-events="all"/><path d="M 670 323 L 684.53 322.99" fill="none" stroke="#000000" stroke-miterlimit="10" pointer-events="stroke"/><path d="M 689.78 322.98 L 682.78 326.49 L 684.53 322.99 L 682.78 319.49 Z" fill="#000000" stroke="#000000" stroke-miterlimit="10" pointer-events="all"/><rect x="690.9" y="315.85" width="40.41" height="14.27" fill="none" stroke="none" pointer-events="all"/><g transform="translate(-0.5 -0.5)"><switch><foreignObject style="overflow: visible; text-align: left;" pointer-events="none" width="100%" height="100%" requiredFeatures="http://www.w3.org/TR/SVG11/feature#Extensibility"><div xmlns="http://www.w3.org/1999/xhtml" style="display: flex; align-items: unsafe center; justify-content: unsafe center; width: 38px; height: 1px; padding-top: 323px; margin-left: 692px;"><div style="box-sizing: border-box; font-size: 0; text-align: center; "><div style="display: inline-block; font-size: 12px; font-family: Helvetica; color: #000000; line-height: 1.2; pointer-events: all; white-space: normal; word-wrap: normal; ">Primary</div></div></div></foreignObject><text x="711" y="327" fill="#000000" font-family="Helvetica" font-size="12px" text-anchor="middle">Primary</text></switch></g><rect x="690.9" y="342.6" width="40.41" height="14.27" fill="none" stroke="none" pointer-events="all"/><g transform="translate(-0.5 -0.5)"><switch><foreignObject style="overflow: visible; text-align: left;" pointer-events="none" width="100%" height="100%" requiredFeatures="http://www.w3.org/TR/SVG11/feature#Extensibility"><div xmlns="http://www.w3.org/1999/xhtml" style="display: flex; align-items: unsafe center; justify-content: unsafe center; width: 38px; height: 1px; padding-top: 350px; margin-left: 692px;"><div style="box-sizing: border-box; font-size: 0; text-align: center; "><div style="display: inline-block; font-size: 12px; font-family: Helvetica; color: #000000; line-height: 1.2; pointer-events: all; white-space: normal; word-wrap: normal; ">Replica</div></div></div></foreignObject><text x="711" y="353" fill="#000000" font-family="Helvetica" font-size="12px" text-anchor="middle">Replica</text></switch></g><path d="M 670 350 L 684.53 349.81" fill="none" stroke="#000000" stroke-miterlimit="10" pointer-events="stroke"/><path d="M 689.78 349.75 L 682.83 353.34 L 684.53 349.81 L 682.74 346.34 Z" fill="#000000" stroke="#000000" stroke-miterlimit="10" pointer-events="all"/><path d="M 26.08 78.59 L 37.46 78.59 L 43.46 84.59 L 43.46 94.19 L 26.08 94.19 L 26.08 78.59 Z" fill="#fff2cc" stroke="#000000" stroke-miterlimit="10" pointer-events="all"/><path d="M 37.46 78.59 L 37.46 84.59 L 43.46 84.59 Z" fill-opacity="0.05" fill="#000000" stroke="none" pointer-events="all"/><path d="M 37.46 78.59 L 37.46 84.59 L 43.46 84.59" fill="none" stroke="#000000" stroke-miterlimit="10" pointer-events="all"/><rect x="130" y="16.56" width="99.64" height="16.72" fill="none" stroke="none" pointer-events="all"/><g transform="translate(-0.5 -0.5)"><switch><foreignObject style="overflow: visible; text-align: left;" pointer-events="none" width="100%" height="100%" requiredFeatures="http://www.w3.org/TR/SVG11/feature#Extensibility"><div xmlns="http://www.w3.org/1999/xhtml" style="display: flex; align-items: unsafe center; justify-content: unsafe center; width: 98px; height: 1px; padding-top: 25px; margin-left: 131px;"><div style="box-sizing: border-box; font-size: 0; text-align: center; "><div style="display: inline-block; font-size: 12px; font-family: Helvetica; color: #000000; line-height: 1.2; pointer-events: all; white-space: normal; word-wrap: normal; "><span style="color: rgb(22 , 25 , 31)"><font style="font-size: 12px"><b>Europe (Paris)</b></font></span></div></div></div></foreignObject><text x="180" y="29" fill="#000000" font-family="Helvetica" font-size="12px" text-anchor="middle">Europe (Paris)</text></switch></g><rect x="510" y="16.56" width="140" height="16.72" fill="none" stroke="none" pointer-events="all"/><g transform="translate(-0.5 -0.5)"><switch><foreignObject style="overflow: visible; text-align: left;" pointer-events="none" width="100%" height="100%" requiredFeatures="http://www.w3.org/TR/SVG11/feature#Extensibility"><div xmlns="http://www.w3.org/1999/xhtml" style="display: flex; align-items: unsafe center; justify-content: unsafe center; width: 138px; height: 1px; padding-top: 25px; margin-left: 511px;"><div style="box-sizing: border-box; font-size: 0; text-align: center; "><div style="display: inline-block; font-size: 12px; font-family: Helvetica; color: #000000; line-height: 1.2; pointer-events: all; white-space: normal; word-wrap: normal; "><span style="color: rgb(22 , 25 , 31)"><font style="font-size: 12px"><b>Eastern US (N. Virginia)</b></font></span></div></div></div></foreignObject><text x="580" y="29" fill="#000000" font-family="Helvetica" font-size="12px" text-anchor="middle">Eastern US (N. Virginia)</text></switch></g></g><switch><g requiredFeatures="http://www.w3.org/TR/SVG11/feature#Extensibility"/><a transform="translate(0,-5)" xlink:href="https://desk.draw.io/support/solutions/articles/16000042487" target="_blank"><text text-anchor="middle" font-size="10px" x="50%" y="100%">Viewer does not support full SVG 1.1</text></a></switch></svg>