<svg xmlns="http://www.w3.org/2000/svg" xmlns:xlink="http://www.w3.org/1999/xlink" version="1.1" width="831px" height="336px" viewBox="-0.5 -0.5 831 336"><defs><clipPath id="mx-clip-199-42-202-26-0"><rect x="199" y="42" width="202" height="26"/></clipPath><clipPath id="mx-clip-199-68-202-26-0"><rect x="199" y="68" width="202" height="26"/></clipPath><clipPath id="mx-clip-199-94-202-26-0"><rect x="199" y="94" width="202" height="26"/></clipPath><clipPath id="mx-clip-199-120-202-26-0"><rect x="199" y="120" width="202" height="26"/></clipPath><clipPath id="mx-clip-199-146-202-26-0"><rect x="199" y="146" width="202" height="26"/></clipPath><clipPath id="mx-clip-199-172-202-26-0"><rect x="199" y="172" width="202" height="26"/></clipPath><clipPath id="mx-clip-199-198-202-26-0"><rect x="199" y="198" width="202" height="26"/></clipPath><clipPath id="mx-clip-199-224-202-26-0"><rect x="199" y="224" width="202" height="26"/></clipPath><clipPath id="mx-clip-16-42-162-26-0"><rect x="16" y="42" width="162" height="26"/></clipPath><clipPath id="mx-clip-16-68-162-26-0"><rect x="16" y="68" width="162" height="26"/></clipPath><clipPath id="mx-clip-16-94-162-26-0"><rect x="16" y="94" width="162" height="26"/></clipPath><clipPath id="mx-clip-16-120-162-26-0"><rect x="16" y="120" width="162" height="26"/></clipPath><clipPath id="mx-clip-16-146-162-26-0"><rect x="16" y="146" width="162" height="26"/></clipPath><clipPath id="mx-clip-199-250-202-26-0"><rect x="199" y="250" width="202" height="26"/></clipPath><clipPath id="mx-clip-643-42-172-26-0"><rect x="643" y="42" width="172" height="26"/></clipPath><clipPath id="mx-clip-643-68-172-26-0"><rect x="643" y="68" width="172" height="26"/></clipPath><clipPath id="mx-clip-643-94-172-26-0"><rect x="643" y="94" width="172" height="26"/></clipPath><clipPath id="mx-clip-643-120-172-26-0"><rect x="643" y="120" width="172" height="26"/></clipPath><clipPath id="mx-clip-643-146-172-26-0"><rect x="643" y="146" width="172" height="26"/></clipPath><clipPath id="mx-clip-643-172-172-26-0"><rect x="643" y="172" width="172" height="26"/></clipPath><clipPath id="mx-clip-422-42-201-26-0"><rect x="422" y="42" width="201" height="26"/></clipPath><clipPath id="mx-clip-422-68-201-26-0"><rect x="422" y="68" width="201" height="26"/></clipPath><clipPath id="mx-clip-422-93-201-26-0"><rect x="422" y="93" width="201" height="26"/></clipPath><clipPath id="mx-clip-422-118-201-26-0"><rect x="422" y="118" width="201" height="26"/></clipPath><clipPath id="mx-clip-422-144-201-26-0"><rect x="422" y="144" width="201" height="26"/></clipPath><clipPath id="mx-clip-422-169-201-26-0"><rect x="422" y="169" width="201" height="26"/></clipPath><clipPath id="mx-clip-422-195-201-26-0"><rect x="422" y="195" width="201" height="26"/></clipPath><clipPath id="mx-clip-199-276-202-26-0"><rect x="199" y="276" width="202" height="26"/></clipPath><clipPath id="mx-clip-199-302-202-26-0"><rect x="199" y="302" width="202" height="26"/></clipPath></defs><g><path d="M 195 37 L 195 11 L 405 11 L 405 37" fill="#ffce9f" stroke="#000000" stroke-miterlimit="10" pointer-events="all"/><path d="M 195 37 L 195 115 L 405 115 L 405 37" fill="none" stroke="#000000" stroke-miterlimit="10" pointer-events="none"/><path d="M 195 37 L 405 37" fill="none" stroke="#000000" stroke-miterlimit="10" pointer-events="none"/><g fill="#000000" font-family="Helvetica" pointer-events="none" text-anchor="middle" font-size="14px"><text x="299.5" y="29.5">Video</text></g><g fill="#000000" font-family="Helvetica" pointer-events="none" clip-path="url(#mx-clip-199-42-202-26-0)" font-size="14px"><text x="200.5" y="56.5">id:                      INT</text></g><rect x="195" y="63" width="210" height="26" fill="none" stroke="#000000" pointer-events="none"/><g fill="#000000" font-family="Helvetica" pointer-events="none" clip-path="url(#mx-clip-199-68-202-26-0)" font-size="14px"><text x="200.5" y="82.5">title:                   VARCHAR(256)</text></g><rect x="195" y="89" width="210" height="26" fill="none" stroke="#000000" pointer-events="none"/><g fill="#000000" font-family="Helvetica" pointer-events="none" clip-path="url(#mx-clip-199-94-202-26-0)" font-size="13px"><text x="200.5" y="107.5">desc:                   VARCHAR</text></g><rect x="195" y="115" width="210" height="26" fill="none" stroke="#000000" pointer-events="none"/><g fill="#000000" font-family="Helvetica" pointer-events="none" clip-path="url(#mx-clip-199-120-202-26-0)" font-size="14px"><text x="200.5" y="134.5">upload_date:     DATE</text></g><rect x="195" y="141" width="210" height="26" fill="none" stroke="#000000" pointer-events="none"/><g fill="#000000" font-family="Helvetica" pointer-events="none" clip-path="url(#mx-clip-199-146-202-26-0)" font-size="14px"><text x="200.5" y="160.5">channel_id:       INT</text></g><rect x="195" y="167" width="210" height="26" fill="none" stroke="#000000" pointer-events="none"/><g fill="#000000" font-family="Helvetica" pointer-events="none" clip-path="url(#mx-clip-199-172-202-26-0)" font-size="14px"><text x="200.5" y="186.5">likes_count:       INT</text></g><rect x="195" y="193" width="210" height="26" fill="none" stroke="#000000" pointer-events="none"/><g fill="#000000" font-family="Helvetica" pointer-events="none" clip-path="url(#mx-clip-199-198-202-26-0)" font-size="14px"><text x="200.5" y="212.5">dislikes_count:  INT</text></g><rect x="195" y="219" width="210" height="26" fill="none" stroke="#000000" pointer-events="none"/><g fill="#000000" font-family="Helvetica" pointer-events="none" clip-path="url(#mx-clip-199-224-202-26-0)" font-size="14px"><text x="200.5" y="238.5">views_count:     INT</text></g><path d="M 12 37 L 12 11 L 182 11 L 182 37" fill="#ffce9f" stroke="#000000" stroke-miterlimit="10" pointer-events="none"/><path d="M 12 37 L 12 115 L 182 115 L 182 37" fill="none" stroke="#000000" stroke-miterlimit="10" pointer-events="none"/><path d="M 12 37 L 182 37" fill="none" stroke="#000000" stroke-miterlimit="10" pointer-events="none"/><g fill="#000000" font-family="Helvetica" pointer-events="none" text-anchor="middle" font-size="14px"><text x="96.5" y="29.5">User</text></g><g fill="#000000" font-family="Helvetica" pointer-events="none" clip-path="url(#mx-clip-16-42-162-26-0)" font-size="14px"><text x="17.5" y="56.5">id:                    INT</text></g><rect x="12" y="63" width="170" height="26" fill="none" stroke="#000000" pointer-events="none"/><g fill="#000000" font-family="Helvetica" pointer-events="none" clip-path="url(#mx-clip-16-68-162-26-0)" font-size="14px"><text x="17.5" y="82.5">user_email:     VARCHAR</text></g><rect x="12" y="89" width="170" height="26" fill="none" stroke="#000000" pointer-events="none"/><g fill="#000000" font-family="Helvetica" pointer-events="none" clip-path="url(#mx-clip-16-94-162-26-0)" font-size="13px"><text x="17.5" y="107.5">username:        VARCHAR</text></g><rect x="12" y="115" width="170" height="26" fill="none" stroke="#000000" pointer-events="none"/><g fill="#000000" font-family="Helvetica" pointer-events="none" clip-path="url(#mx-clip-16-120-162-26-0)" font-size="14px"><text x="17.5" y="134.5">password:       VARCHAR</text></g><rect x="12" y="141" width="170" height="26" fill="none" stroke="#000000" pointer-events="none"/><g fill="#000000" font-family="Helvetica" pointer-events="none" clip-path="url(#mx-clip-16-146-162-26-0)" font-size="14px"><text x="17.5" y="160.5">DOB:               DATE</text></g><rect x="195" y="245" width="210" height="26" fill="none" stroke="#000000" pointer-events="none"/><g fill="#000000" font-family="Helvetica" pointer-events="none" clip-path="url(#mx-clip-199-250-202-26-0)" font-size="14px"><text x="200.5" y="264.5">video_URI:        VARCHAR</text></g><path d="M 639 37 L 639 11 L 819 11 L 819 37" fill="#ffce9f" stroke="#000000" stroke-miterlimit="10" pointer-events="none"/><path d="M 639 37 L 639 115 L 819 115 L 819 37" fill="none" stroke="#000000" stroke-miterlimit="10" pointer-events="none"/><path d="M 639 37 L 819 37" fill="none" stroke="#000000" stroke-miterlimit="10" pointer-events="none"/><g fill="#000000" font-family="Helvetica" pointer-events="none" text-anchor="middle" font-size="14px"><text x="728.5" y="29.5">Channel</text></g><g fill="#000000" font-family="Helvetica" pointer-events="none" clip-path="url(#mx-clip-643-42-172-26-0)" font-size="14px"><text x="644.5" y="56.5">id:                        INT</text></g><rect x="639" y="63" width="180" height="26" fill="none" stroke="#000000" pointer-events="none"/><g fill="#000000" font-family="Helvetica" pointer-events="none" clip-path="url(#mx-clip-643-68-172-26-0)" font-size="13px"><text x="644.5" y="81.5">channel_name:    VARCHAR</text></g><rect x="639" y="89" width="180" height="26" fill="none" stroke="#000000" pointer-events="none"/><g fill="#000000" font-family="Helvetica" pointer-events="none" clip-path="url(#mx-clip-643-94-172-26-0)" font-size="13px"><text x="644.5" y="107.5">user_id:                INT</text></g><rect x="639" y="115" width="180" height="26" fill="none" stroke="#000000" pointer-events="none"/><g fill="#000000" font-family="Helvetica" pointer-events="none" clip-path="url(#mx-clip-643-120-172-26-0)" font-size="14px"><text x="644.5" y="134.5">subscribers:       INT</text></g><rect x="639" y="141" width="180" height="26" fill="none" stroke="#000000" pointer-events="none"/><g fill="#000000" font-family="Helvetica" pointer-events="none" clip-path="url(#mx-clip-643-146-172-26-0)" font-size="14px"><text x="644.5" y="160.5">description:        VARCHAR</text></g><rect x="639" y="167" width="180" height="26" fill="none" stroke="#000000" pointer-events="none"/><g fill="#000000" font-family="Helvetica" pointer-events="none" clip-path="url(#mx-clip-643-172-172-26-0)" font-size="14px"><text x="644.5" y="186.5">category_id:       INT</text></g><path d="M 418 37 L 418 11 L 627 11 L 627 37" fill="#ffce9f" stroke="#000000" stroke-miterlimit="10" pointer-events="none"/><path d="M 418 37 L 418 113.67 L 627 113.67 L 627 37" fill="none" stroke="#000000" stroke-miterlimit="10" pointer-events="none"/><path d="M 418 37 L 627 37" fill="none" stroke="#000000" stroke-miterlimit="10" pointer-events="none"/><g fill="#000000" font-family="Helvetica" pointer-events="none" text-anchor="middle" font-size="14px"><text x="522" y="29.5">Comments</text></g><g fill="#000000" font-family="Helvetica" pointer-events="none" clip-path="url(#mx-clip-422-42-201-26-0)" font-size="14px"><text x="423.5" y="56.5">id:                       INT</text></g><rect x="418" y="62.56" width="209" height="25.56" fill="none" stroke="#000000" pointer-events="none"/><g fill="#000000" font-family="Helvetica" pointer-events="none" clip-path="url(#mx-clip-422-68-201-26-0)" font-size="14px"><text x="423.5" y="82.06">video_id:            INT</text></g><rect x="418" y="88.11" width="209" height="25.56" fill="none" stroke="#000000" pointer-events="none"/><g fill="#000000" font-family="Helvetica" pointer-events="none" clip-path="url(#mx-clip-422-93-201-26-0)" font-size="13px"><text x="423.5" y="106.61">user_id:                INT</text></g><rect x="418" y="113.22" width="209" height="25.56" fill="none" stroke="#000000" pointer-events="none"/><g fill="#000000" font-family="Helvetica" pointer-events="none" clip-path="url(#mx-clip-422-118-201-26-0)" font-size="14px"><text x="423.5" y="132.72">date_posted:     DATE</text></g><rect x="418" y="138.78" width="209" height="25.56" fill="none" stroke="#000000" pointer-events="none"/><g fill="#000000" font-family="Helvetica" pointer-events="none" clip-path="url(#mx-clip-422-144-201-26-0)" font-size="12px"><text x="423.5" y="156.28">comment_text:      VARCHAR(2048)</text></g><rect x="418" y="164.33" width="209" height="25.56" fill="none" stroke="#000000" pointer-events="none"/><g fill="#000000" font-family="Helvetica" pointer-events="none" clip-path="url(#mx-clip-422-169-201-26-0)" font-size="14px"><text x="423.5" y="183.83">likes_count:        INT</text></g><rect x="418" y="189.89" width="209" height="25.56" fill="none" stroke="#000000" pointer-events="none"/><g fill="#000000" font-family="Helvetica" pointer-events="none" clip-path="url(#mx-clip-422-195-201-26-0)" font-size="14px"><text x="423.5" y="209.39">dislikes_count:   INT</text></g><rect x="195" y="271" width="210" height="26" fill="none" stroke="#000000" pointer-events="none"/><g fill="#000000" font-family="Helvetica" pointer-events="none" clip-path="url(#mx-clip-199-276-202-26-0)" font-size="14px"><text x="200.5" y="290.5">privacy_level:    SMALLINT</text></g><rect x="195" y="297" width="210" height="26" fill="none" stroke="#000000" pointer-events="none"/><g fill="#000000" font-family="Helvetica" pointer-events="none" clip-path="url(#mx-clip-199-302-202-26-0)" font-size="14px"><text x="200.5" y="316.5">default_lang:     VARCHAR</text></g><rect x="0" y="0" width="830" height="335" fill="none" stroke="#000000" pointer-events="none"/></g></svg>