<svg xmlns="http://www.w3.org/2000/svg" xmlns:xlink="http://www.w3.org/1999/xlink" version="1.1" width="1121px" height="291px" viewBox="-0.5 -0.5 1121 291"><defs><clipPath id="mx-clip-304-59-232-26-0"><rect x="304" y="59" width="232" height="26"/></clipPath><clipPath id="mx-clip-304-85-232-26-0"><rect x="304" y="85" width="232" height="26"/></clipPath><clipPath id="mx-clip-304-111-232-26-0"><rect x="304" y="111" width="232" height="26"/></clipPath><clipPath id="mx-clip-304-137-232-26-0"><rect x="304" y="137" width="232" height="26"/></clipPath><clipPath id="mx-clip-24-59-232-26-0"><rect x="24" y="59" width="232" height="26"/></clipPath><clipPath id="mx-clip-24-85-232-26-0"><rect x="24" y="85" width="232" height="26"/></clipPath><clipPath id="mx-clip-24-111-232-26-0"><rect x="24" y="111" width="232" height="26"/></clipPath><clipPath id="mx-clip-24-137-232-26-0"><rect x="24" y="137" width="232" height="26"/></clipPath><clipPath id="mx-clip-24-163-232-26-0"><rect x="24" y="163" width="232" height="26"/></clipPath><clipPath id="mx-clip-864-59-232-26-0"><rect x="864" y="59" width="232" height="26"/></clipPath><clipPath id="mx-clip-864-85-232-26-0"><rect x="864" y="85" width="232" height="26"/></clipPath><clipPath id="mx-clip-584-59-232-26-0"><rect x="584" y="59" width="232" height="26"/></clipPath><clipPath id="mx-clip-584-85-232-26-0"><rect x="584" y="85" width="232" height="26"/></clipPath><clipPath id="mx-clip-584-110-232-26-0"><rect x="584" y="110" width="232" height="26"/></clipPath><clipPath id="mx-clip-584-136-232-26-0"><rect x="584" y="136" width="232" height="26"/></clipPath><clipPath id="mx-clip-584-161-232-26-0"><rect x="584" y="161" width="232" height="26"/></clipPath><clipPath id="mx-clip-304-163-232-26-0"><rect x="304" y="163" width="232" height="26"/></clipPath><clipPath id="mx-clip-304-189-232-26-0"><rect x="304" y="189" width="232" height="26"/></clipPath><clipPath id="mx-clip-304-215-232-26-0"><rect x="304" y="215" width="232" height="26"/></clipPath><clipPath id="mx-clip-304-241-232-26-0"><rect x="304" y="241" width="232" height="26"/></clipPath><clipPath id="mx-clip-864-111-232-26-0"><rect x="864" y="111" width="232" height="26"/></clipPath><clipPath id="mx-clip-864-136-232-26-0"><rect x="864" y="136" width="232" height="26"/></clipPath><clipPath id="mx-clip-864-162-232-26-0"><rect x="864" y="162" width="232" height="26"/></clipPath><clipPath id="mx-clip-864-188-232-26-0"><rect x="864" y="188" width="232" height="26"/></clipPath></defs><g><rect x="0" y="-0.45" width="1120" height="290" fill="none" stroke="#000000" pointer-events="all"/><path d="M 300 54 L 300 28 L 540 28 L 540 54" fill="#ffce9f" stroke="#000000" stroke-miterlimit="10" pointer-events="all"/><path d="M 300 54 L 300 132 L 540 132 L 540 54" fill="none" stroke="#000000" stroke-miterlimit="10" pointer-events="none"/><path d="M 300 54 L 540 54" fill="none" stroke="#000000" stroke-miterlimit="10" pointer-events="none"/><g fill="#000000" font-family="Helvetica" pointer-events="none" text-anchor="middle" font-size="14px"><text x="419.5" y="46.5">Drivers</text></g><g fill="#000000" font-family="Helvetica" pointer-events="none" clip-path="url(#mx-clip-304-59-232-26-0)" font-size="14px"><text x="305.5" y="73.5">Driver_ID:                        INT</text></g><rect x="300" y="80" width="240" height="26" fill="none" stroke="#000000" pointer-events="none"/><g fill="#000000" font-family="Helvetica" pointer-events="none" clip-path="url(#mx-clip-304-85-232-26-0)" font-size="14px"><text x="305.5" y="99.5">Name:                             VARCHAR</text></g><rect x="300" y="106" width="240" height="26" fill="none" stroke="#000000" pointer-events="none"/><g fill="#000000" font-family="Helvetica" pointer-events="none" clip-path="url(#mx-clip-304-111-232-26-0)" font-size="13px"><text x="305.5" y="124.5">Email:                                 VARCHAR</text></g><rect x="300" y="131.67" width="240" height="26" fill="none" stroke="#000000" pointer-events="none"/><g fill="#000000" font-family="Helvetica" pointer-events="none" clip-path="url(#mx-clip-304-137-232-26-0)" font-size="14px"><text x="305.5" y="151.17">Photo:                              VARCHAR</text></g><path d="M 20 54 L 20 28 L 260 28 L 260 54" fill="#ffce9f" stroke="#000000" stroke-miterlimit="10" pointer-events="none"/><path d="M 20 54 L 20 132 L 260 132 L 260 54" fill="none" stroke="#000000" stroke-miterlimit="10" pointer-events="none"/><path d="M 20 54 L 260 54" fill="none" stroke="#000000" stroke-miterlimit="10" pointer-events="none"/><g fill="#000000" font-family="Helvetica" pointer-events="none" text-anchor="middle" font-size="14px"><text x="139.5" y="46.5">Riders</text></g><g fill="#000000" font-family="Helvetica" pointer-events="none" clip-path="url(#mx-clip-24-59-232-26-0)" font-size="14px"><text x="25.5" y="73.5">Rider_ID:                         INT</text></g><rect x="20" y="80" width="240" height="26" fill="none" stroke="#000000" pointer-events="none"/><g fill="#000000" font-family="Helvetica" pointer-events="none" clip-path="url(#mx-clip-24-85-232-26-0)" font-size="14px"><text x="25.5" y="99.5">Name                               VARCHAR</text></g><rect x="20" y="106" width="240" height="26" fill="none" stroke="#000000" pointer-events="none"/><g fill="#000000" font-family="Helvetica" pointer-events="none" clip-path="url(#mx-clip-24-111-232-26-0)" font-size="14px"><text x="25.5" y="125.5">Email:                              VARCHAR</text></g><rect x="20" y="132" width="240" height="26" fill="none" stroke="#000000" pointer-events="none"/><g fill="#000000" font-family="Helvetica" pointer-events="none" clip-path="url(#mx-clip-24-137-232-26-0)" font-size="14px"><text x="25.5" y="151.5">Photo:                              VARCHAR</text></g><rect x="20" y="158" width="240" height="26" fill="none" stroke="#000000" pointer-events="none"/><g fill="#000000" font-family="Helvetica" pointer-events="none" clip-path="url(#mx-clip-24-163-232-26-0)" font-size="14px"><text x="25.5" y="177.5">Phone:                             INT</text></g><path d="M 860 54 L 860 28 L 1100 28 L 1100 54" fill="#ffce9f" stroke="#000000" stroke-miterlimit="10" pointer-events="none"/><path d="M 860 54 L 860 106 L 1100 106 L 1100 54" fill="none" stroke="#000000" stroke-miterlimit="10" pointer-events="none"/><path d="M 860 54 L 1100 54" fill="none" stroke="#000000" stroke-miterlimit="10" pointer-events="none"/><g fill="#000000" font-family="Helvetica" pointer-events="none" text-anchor="middle" font-size="14px"><text x="979.5" y="46.5">Trips</text></g><g fill="#000000" font-family="Helvetica" pointer-events="none" clip-path="url(#mx-clip-864-59-232-26-0)" font-size="14px"><text x="865.5" y="73.5">Trip_ID:                           INT</text></g><rect x="860" y="80" width="240" height="26" fill="none" stroke="#000000" pointer-events="none"/><g fill="#000000" font-family="Helvetica" pointer-events="none" clip-path="url(#mx-clip-864-85-232-26-0)" font-size="14px"><text x="865.5" y="99.5">Rider_ID:                        INT</text></g><path d="M 580 54 L 580 28 L 820 28 L 820 54" fill="#ffce9f" stroke="#000000" stroke-miterlimit="10" pointer-events="none"/><path d="M 580 54 L 580 130.67 L 820 130.67 L 820 54" fill="none" stroke="#000000" stroke-miterlimit="10" pointer-events="none"/><path d="M 580 54 L 820 54" fill="none" stroke="#000000" stroke-miterlimit="10" pointer-events="none"/><g fill="#000000" font-family="Helvetica" pointer-events="none" text-anchor="middle" font-size="14px"><text x="699.5" y="46.5">Driver_location</text></g><g fill="#000000" font-family="Helvetica" pointer-events="none" clip-path="url(#mx-clip-584-59-232-26-0)" font-size="14px"><text x="585.5" y="73.5">Driver_ID:                        INT</text></g><rect x="580" y="79.56" width="240" height="25.56" fill="none" stroke="#000000" pointer-events="none"/><g fill="#000000" font-family="Helvetica" pointer-events="none" clip-path="url(#mx-clip-584-85-232-26-0)" font-size="14px"><text x="585.5" y="99.06">Old latitude:                     DECIMAL</text></g><rect x="580" y="105.11" width="240" height="25.56" fill="none" stroke="#000000" pointer-events="none"/><g fill="#000000" font-family="Helvetica" pointer-events="none" clip-path="url(#mx-clip-584-110-232-26-0)" font-size="13px"><text x="585.5" y="123.61">Old longitude:                     DECIMAL</text></g><rect x="580" y="130.77" width="240" height="25.56" fill="none" stroke="#000000" pointer-events="none"/><g fill="#000000" font-family="Helvetica" pointer-events="none" clip-path="url(#mx-clip-584-136-232-26-0)" font-size="14px"><text x="585.5" y="150.27">New latitude:                   DECIMAL</text></g><rect x="580" y="156.32" width="240" height="25.56" fill="none" stroke="#000000" pointer-events="none"/><g fill="#000000" font-family="Helvetica" pointer-events="none" clip-path="url(#mx-clip-584-161-232-26-0)" font-size="14px"><text x="585.5" y="175.82">New longitude:                DECIMAL</text></g><rect x="300" y="157.55" width="240" height="26" fill="none" stroke="#000000" pointer-events="none"/><g fill="#000000" font-family="Helvetica" pointer-events="none" clip-path="url(#mx-clip-304-163-232-26-0)" font-size="14px"><text x="305.5" y="177.05">Phone:                             INT</text></g><rect x="300" y="183.55" width="240" height="26" fill="none" stroke="#000000" pointer-events="none"/><g fill="#000000" font-family="Helvetica" pointer-events="none" clip-path="url(#mx-clip-304-189-232-26-0)" font-size="14px"><text x="305.5" y="203.05">Vehicle_type:                   VARCHAR</text></g><rect x="300" y="209.55" width="240" height="26" fill="none" stroke="#000000" pointer-events="none"/><g fill="#000000" font-family="Helvetica" pointer-events="none" clip-path="url(#mx-clip-304-215-232-26-0)" font-size="14px"><text x="305.5" y="229.05">Vehicle_name:                 VARCHAR</text></g><rect x="300" y="235.55" width="240" height="26" fill="none" stroke="#000000" pointer-events="none"/><g fill="#000000" font-family="Helvetica" pointer-events="none" clip-path="url(#mx-clip-304-241-232-26-0)" font-size="14px"><text x="305.5" y="255.05">Vehicle_number:             INT</text></g><rect x="860" y="105.67" width="240" height="26" fill="none" stroke="#000000" pointer-events="none"/><g fill="#000000" font-family="Helvetica" pointer-events="none" clip-path="url(#mx-clip-864-111-232-26-0)" font-size="14px"><text x="865.5" y="125.17">Driver_ID:                       INT</text></g><rect x="860" y="131.32" width="240" height="26" fill="none" stroke="#000000" pointer-events="none"/><g fill="#000000" font-family="Helvetica" pointer-events="none" clip-path="url(#mx-clip-864-136-232-26-0)" font-size="14px"><text x="865.5" y="150.82">Location:                         DECIMAL</text></g><rect x="860" y="156.88" width="240" height="26" fill="none" stroke="#000000" pointer-events="none"/><g fill="#000000" font-family="Helvetica" pointer-events="none" clip-path="url(#mx-clip-864-162-232-26-0)" font-size="14px"><text x="865.5" y="176.38">ETA:                                INT</text></g><rect x="860" y="183" width="240" height="26" fill="none" stroke="#000000" pointer-events="none"/><g fill="#000000" font-family="Helvetica" pointer-events="none" clip-path="url(#mx-clip-864-188-232-26-0)" font-size="14px"><text x="865.5" y="202.5">status:                             VARCHAR</text></g></g></svg>