<svg xmlns="http://www.w3.org/2000/svg" xmlns:xlink="http://www.w3.org/1999/xlink" version="1.1" width="991px" height="351px" viewBox="-0.5 -0.5 991 351"><defs/><g><path d="M 206 227.5 L 301 207.5" fill="none" stroke="#000000" stroke-miterlimit="10" pointer-events="stroke"/><ellipse cx="198.5" cy="227.5" rx="7.5" ry="7.5" fill="#000000" stroke="#000000" pointer-events="all"/><path d="M 248.5 185 L 238.8 152.8" fill="none" stroke="#000000" stroke-miterlimit="10" pointer-events="stroke"/><path d="M 249 193 L 501 192.5" fill="none" stroke="#000000" stroke-miterlimit="10" pointer-events="stroke"/><ellipse cx="248.5" cy="192.5" rx="7.5" ry="7.5" fill="#000000" stroke="#000000" pointer-events="all"/><path d="M 286 252.5 L 401 237.5" fill="none" stroke="#000000" stroke-miterlimit="10" pointer-events="stroke"/><path d="M 283.8 257.8 L 333.2 302.2" fill="none" stroke="#000000" stroke-miterlimit="10" pointer-events="stroke"/><ellipse cx="278.5" cy="252.5" rx="7.5" ry="7.5" fill="#000000" stroke="#000000" pointer-events="all"/><path d="M 338.5 140 L 308.5 45" fill="none" stroke="#000000" stroke-miterlimit="10" pointer-events="stroke"/><ellipse cx="338.5" cy="147.5" rx="7.5" ry="7.5" fill="#000000" stroke="#000000" pointer-events="all"/><ellipse cx="308.5" cy="207.5" rx="7.5" ry="7.5" fill="#000000" stroke="#000000" pointer-events="all"/><path d="M 241 147.5 L 331 147.5" fill="none" stroke="#000000" stroke-miterlimit="10" pointer-events="stroke"/><ellipse cx="233.5" cy="147.5" rx="7.5" ry="7.5" fill="#000000" stroke="#000000" pointer-events="all"/><path d="M 143.8 222.2 L 228.2 152.8" fill="none" stroke="#000000" stroke-miterlimit="10" pointer-events="stroke"/><path d="M 146 227.5 L 191 227.5" fill="none" stroke="#000000" stroke-miterlimit="10" pointer-events="stroke"/><ellipse cx="138.5" cy="227.5" rx="7.5" ry="7.5" fill="#000000" stroke="#000000" pointer-events="all"/><path d="M 316 37.5 L 553.2 172.2" fill="none" stroke="#000000" stroke-miterlimit="10" pointer-events="stroke"/><path d="M 313.8 32.2 L 840 77.5" fill="none" stroke="#000000" stroke-miterlimit="10" pointer-events="stroke"/><ellipse cx="308.5" cy="37.5" rx="7.5" ry="7.5" fill="#000000" stroke="#000000" pointer-events="all"/><path d="M 333.2 302.2 L 203.8 232.8" fill="none" stroke="#000000" stroke-miterlimit="10" pointer-events="stroke"/><ellipse cx="338.5" cy="307.5" rx="7.5" ry="7.5" fill="#000000" stroke="#000000" pointer-events="all"/><path d="M 373.2 202.2 L 241 147.5" fill="none" stroke="#000000" stroke-miterlimit="10" pointer-events="stroke"/><ellipse cx="378.5" cy="207.5" rx="7.5" ry="7.5" fill="#000000" stroke="#000000" pointer-events="all"/><path d="M 383.2 262.2 L 313.8 212.8" fill="none" stroke="#000000" stroke-miterlimit="10" pointer-events="stroke"/><ellipse cx="388.5" cy="267.5" rx="7.5" ry="7.5" fill="#000000" stroke="#000000" pointer-events="all"/><path d="M 513.8 197.8 L 613.2 242.2" fill="none" stroke="#000000" stroke-miterlimit="10" pointer-events="stroke"/><ellipse cx="508.5" cy="192.5" rx="7.5" ry="7.5" fill="#000000" stroke="#000000" pointer-events="all"/><path d="M 388.5 140 L 408.5 230" fill="none" stroke="#000000" stroke-miterlimit="10" pointer-events="stroke"/><ellipse cx="388.5" cy="132.5" rx="7.5" ry="7.5" fill="#000000" stroke="#000000" pointer-events="all"/><ellipse cx="408.5" cy="237.5" rx="7.5" ry="7.5" fill="#000000" stroke="#000000" pointer-events="all"/><path d="M 551 177.5 L 396 132.5" fill="none" stroke="#000000" stroke-miterlimit="10" pointer-events="stroke"/><path d="M 566 177.5 L 812.2 247.2" fill="none" stroke="#000000" stroke-miterlimit="10" pointer-events="stroke"/><ellipse cx="558.5" cy="177.5" rx="7.5" ry="7.5" fill="#000000" stroke="#000000" pointer-events="all"/><path d="M 611 247.5 L 416 237.5" fill="none" stroke="#000000" stroke-miterlimit="10" pointer-events="stroke"/><path d="M 626 247.5 L 770 282.5" fill="none" stroke="#000000" stroke-miterlimit="10" pointer-events="stroke"/><ellipse cx="618.5" cy="247.5" rx="7.5" ry="7.5" fill="#000000" stroke="#000000" pointer-events="all"/><path d="M 566 127.5 L 396 132.5" fill="none" stroke="#000000" stroke-miterlimit="10" pointer-events="stroke"/><ellipse cx="573.5" cy="127.5" rx="7.5" ry="7.5" fill="#000000" stroke="#000000" pointer-events="all"/><path d="M 475 77.5 L 316 37.5" fill="none" stroke="#000000" stroke-miterlimit="10" pointer-events="stroke"/><path d="M 487.8 82.8 L 553.2 172.2" fill="none" stroke="#000000" stroke-miterlimit="10" pointer-events="stroke"/><ellipse cx="482.5" cy="77.5" rx="7.5" ry="7.5" fill="#000000" stroke="#000000" pointer-events="all"/><ellipse cx="777.5" cy="282.5" rx="7.5" ry="7.5" fill="#000000" stroke="#000000" pointer-events="all"/><path d="M 551 307.5 L 413.8 242.8" fill="none" stroke="#000000" stroke-miterlimit="10" pointer-events="stroke"/><ellipse cx="558.5" cy="307.5" rx="7.5" ry="7.5" fill="#000000" stroke="#000000" pointer-events="all"/><path d="M 682.2 227.8 L 566 307.5" fill="none" stroke="#000000" stroke-miterlimit="10" pointer-events="stroke"/><path d="M 692.8 227.8 L 770 282.5" fill="none" stroke="#000000" stroke-miterlimit="10" pointer-events="stroke"/><ellipse cx="687.5" cy="222.5" rx="7.5" ry="7.5" fill="#000000" stroke="#000000" pointer-events="all"/><path d="M 812.2 247.2 L 767.8 182.8" fill="none" stroke="#000000" stroke-miterlimit="10" pointer-events="stroke"/><ellipse cx="817.5" cy="252.5" rx="7.5" ry="7.5" fill="#000000" stroke="#000000" pointer-events="all"/><path d="M 757.2 172.2 L 487.8 82.8" fill="none" stroke="#000000" stroke-miterlimit="10" pointer-events="stroke"/><ellipse cx="762.5" cy="177.5" rx="7.5" ry="7.5" fill="#000000" stroke="#000000" pointer-events="all"/><ellipse cx="847.5" cy="77.5" rx="7.5" ry="7.5" fill="#000000" stroke="#000000" pointer-events="all"/><path d="M 785 112.5 L 581 127.5" fill="none" stroke="#000000" stroke-miterlimit="10" pointer-events="stroke"/><ellipse cx="792.5" cy="112.5" rx="7.5" ry="7.5" fill="#000000" stroke="#000000" pointer-events="all"/><path d="M 198.5 235 L 198.5 251.13" fill="none" stroke="#000000" stroke-miterlimit="10" pointer-events="stroke"/><path d="M 198.5 256.38 L 195 249.38 L 198.5 251.13 L 202 249.38 Z" fill="#000000" stroke="#000000" stroke-miterlimit="10" pointer-events="all"/><rect x="148.5" y="257.5" width="100" height="20" fill="none" stroke="none" pointer-events="all"/><g transform="translate(-0.5 -0.5)"><switch><foreignObject style="overflow: visible; text-align: left;" pointer-events="none" width="100%" height="100%" requiredFeatures="http://www.w3.org/TR/SVG11/feature#Extensibility"><div xmlns="http://www.w3.org/1999/xhtml" style="display: flex; align-items: unsafe center; justify-content: unsafe center; width: 98px; height: 1px; padding-top: 268px; margin-left: 150px;"><div style="box-sizing: border-box; font-size: 0; text-align: center; "><div style="display: inline-block; font-size: 12px; font-family: Helvetica; color: #000000; line-height: 1.2; pointer-events: all; white-space: normal; word-wrap: normal; ">Intersection</div></div></div></foreignObject><text x="199" y="271" fill="#000000" font-family="Helvetica" font-size="12px" text-anchor="middle">Intersection</text></switch></g><rect x="447" y="294.5" width="40" height="20" fill="none" stroke="none" pointer-events="all"/><g transform="translate(-0.5 -0.5)"><switch><foreignObject style="overflow: visible; text-align: left;" pointer-events="none" width="100%" height="100%" requiredFeatures="http://www.w3.org/TR/SVG11/feature#Extensibility"><div xmlns="http://www.w3.org/1999/xhtml" style="display: flex; align-items: unsafe center; justify-content: unsafe center; width: 38px; height: 1px; padding-top: 305px; margin-left: 448px;"><div style="box-sizing: border-box; font-size: 0; text-align: center; "><div style="display: inline-block; font-size: 12px; font-family: Helvetica; color: #000000; line-height: 1.2; pointer-events: all; white-space: normal; word-wrap: normal; ">Roads</div></div></div></foreignObject><text x="467" y="308" fill="#000000" font-family="Helvetica" font-size="12px" text-anchor="middle">Roads</text></switch></g><path d="M 475 272 L 468.55 290.97" fill="none" stroke="#000000" stroke-miterlimit="10" pointer-events="stroke"/><path d="M 466.86 295.94 L 465.8 288.19 L 468.55 290.97 L 472.43 290.44 Z" fill="#000000" stroke="#000000" stroke-miterlimit="10" pointer-events="all"/><rect x="0" y="0" width="990" height="350" fill="none" stroke="#000000" pointer-events="all"/></g><switch><g requiredFeatures="http://www.w3.org/TR/SVG11/feature#Extensibility"/><a transform="translate(0,-5)" xlink:href="https://desk.draw.io/support/solutions/articles/16000042487" target="_blank"><text text-anchor="middle" font-size="10px" x="50%" y="100%">Viewer does not support full SVG 1.1</text></a></switch></svg>