<svg xmlns="http://www.w3.org/2000/svg" xmlns:xlink="http://www.w3.org/1999/xlink" version="1.1" width="781px" height="331px" viewBox="-0.5 -0.5 781 331"><defs/><g><rect x="0" y="0" width="780" height="330" fill="none" stroke="none" pointer-events="all"/><rect x="531" y="10" width="239" height="310" fill="#d5e8d4" stroke="#000000" stroke-dasharray="3 3" pointer-events="all"/><rect x="270" y="10" width="264" height="310" fill="#e1d5e7" stroke="#000000" stroke-dasharray="3 3" pointer-events="all"/><rect x="10" y="10" width="260" height="310" fill="#d4e1f5" stroke="#000000" stroke-dasharray="3 3" pointer-events="all"/><path d="M 106 217.5 L 201 197.5" fill="none" stroke="#000000" stroke-miterlimit="10" pointer-events="stroke"/><ellipse cx="98.5" cy="217.5" rx="7.5" ry="7.5" fill="#000000" stroke="#000000" pointer-events="all"/><path d="M 148.5 175 L 133.5 145" fill="none" stroke="#ea6b66" stroke-width="2" stroke-miterlimit="10" pointer-events="stroke"/><path d="M 149 183 L 401 182.5" fill="none" stroke="#ea6b66" stroke-width="2" stroke-miterlimit="10" pointer-events="stroke"/><ellipse cx="148.5" cy="182.5" rx="7.5" ry="7.5" fill="#000000" stroke="#000000" pointer-events="all"/><path d="M 186 242.5 L 303.2 232.8" fill="none" stroke="#000000" stroke-miterlimit="10" pointer-events="stroke"/><path d="M 183.8 247.8 L 233.2 292.2" fill="none" stroke="#000000" stroke-miterlimit="10" pointer-events="stroke"/><ellipse cx="178.5" cy="242.5" rx="7.5" ry="7.5" fill="#000000" stroke="#000000" pointer-events="all"/><path d="M 238.5 130 L 208.5 35" fill="none" stroke="#000000" stroke-miterlimit="10" pointer-events="stroke"/><ellipse cx="238.5" cy="137.5" rx="7.5" ry="7.5" fill="#000000" stroke="#000000" pointer-events="all"/><ellipse cx="208.5" cy="197.5" rx="7.5" ry="7.5" fill="#000000" stroke="#000000" pointer-events="all"/><path d="M 141 137.5 L 231 137.5" fill="none" stroke="#000000" stroke-miterlimit="10" pointer-events="stroke"/><path d="M 43.8 212.2 L 133.5 145" fill="none" stroke="#ea6b66" stroke-width="2" stroke-miterlimit="10" pointer-events="stroke"/><path d="M 46 217.5 L 91 217.5" fill="none" stroke="#000000" stroke-miterlimit="10" pointer-events="stroke"/><ellipse cx="38.5" cy="217.5" rx="7.5" ry="7.5" fill="#000000" stroke="#000000" pointer-events="all"/><path d="M 213.8 32.8 L 460 170" fill="none" stroke="#000000" stroke-miterlimit="10" pointer-events="stroke"/><path d="M 216 27.5 L 740 67.5" fill="none" stroke="#000000" stroke-miterlimit="10" pointer-events="stroke"/><ellipse cx="208.5" cy="27.5" rx="7.5" ry="7.5" fill="#000000" stroke="#000000" pointer-events="all"/><path d="M 231 297.5 L 103.8 222.8" fill="none" stroke="#000000" stroke-miterlimit="10" pointer-events="stroke"/><ellipse cx="238.5" cy="297.5" rx="7.5" ry="7.5" fill="#000000" stroke="#000000" pointer-events="all"/><path d="M 273.9 200.03 L 141 137.5" fill="none" stroke="#000000" stroke-miterlimit="10" pointer-events="stroke"/><ellipse cx="278.5" cy="197.5" rx="7.5" ry="7.5" fill="#000000" stroke="#000000" pointer-events="all"/><path d="M 283.2 252.2 L 213.8 202.8" fill="none" stroke="#000000" stroke-miterlimit="10" pointer-events="stroke"/><ellipse cx="288.5" cy="257.5" rx="7.5" ry="7.5" fill="#000000" stroke="#000000" pointer-events="all"/><path d="M 413.8 187.8 L 511 237.5" fill="none" stroke="#ea6b66" stroke-width="2" stroke-miterlimit="10" pointer-events="stroke"/><path d="M 288.5 130 L 308.5 220" fill="none" stroke="#000000" stroke-miterlimit="10" pointer-events="stroke"/><ellipse cx="288.5" cy="122.5" rx="7.5" ry="7.5" fill="#000000" stroke="#000000" pointer-events="all"/><path d="M 451 167.5 L 296 122.5" fill="none" stroke="#000000" stroke-miterlimit="10" pointer-events="stroke"/><path d="M 466 167.5 L 712.2 237.2" fill="none" stroke="#000000" stroke-miterlimit="10" pointer-events="stroke"/><ellipse cx="458.5" cy="167.5" rx="7.5" ry="7.5" fill="#000000" stroke="#000000" pointer-events="all"/><path d="M 511 237.5 L 316 227.5" fill="none" stroke="#ea6b66" stroke-width="2" stroke-miterlimit="10" pointer-events="stroke"/><path d="M 526 237.5 L 670 272.5" fill="none" stroke="#000000" stroke-miterlimit="10" pointer-events="stroke"/><ellipse cx="518.5" cy="237.5" rx="7.5" ry="7.5" fill="#000000" stroke="#000000" pointer-events="all"/><path d="M 466 117.5 L 293.8 117.2" fill="none" stroke="#000000" stroke-miterlimit="10" pointer-events="stroke"/><ellipse cx="473.5" cy="117.5" rx="7.5" ry="7.5" fill="#000000" stroke="#000000" pointer-events="all"/><path d="M 375 67.5 L 216 27.5" fill="none" stroke="#000000" stroke-miterlimit="10" pointer-events="stroke"/><path d="M 387.8 72.8 L 458.5 160" fill="none" stroke="#000000" stroke-miterlimit="10" pointer-events="stroke"/><ellipse cx="382.5" cy="67.5" rx="7.5" ry="7.5" fill="#000000" stroke="#000000" pointer-events="all"/><path d="M 451 297.5 L 316 227.5" fill="none" stroke="#ea6b66" stroke-width="2" stroke-miterlimit="10" pointer-events="stroke"/><path d="M 582.2 217.8 L 466 297.5" fill="none" stroke="#ea6b66" stroke-width="2" stroke-miterlimit="10" pointer-events="stroke"/><path d="M 592.8 217.8 L 670 272.5" fill="none" stroke="#ea6b66" stroke-width="2" stroke-miterlimit="10" pointer-events="stroke"/><path d="M 712.2 237.2 L 667.8 172.8" fill="none" stroke="#000000" stroke-miterlimit="10" pointer-events="stroke"/><ellipse cx="717.5" cy="242.5" rx="7.5" ry="7.5" fill="#000000" stroke="#000000" pointer-events="all"/><path d="M 657.2 162.2 L 390 67.5" fill="none" stroke="#000000" stroke-miterlimit="10" pointer-events="stroke"/><ellipse cx="662.5" cy="167.5" rx="7.5" ry="7.5" fill="#000000" stroke="#000000" pointer-events="all"/><ellipse cx="747.5" cy="67.5" rx="7.5" ry="7.5" fill="#000000" stroke="#000000" pointer-events="all"/><path d="M 685 102.5 L 481 117.5" fill="none" stroke="#000000" stroke-miterlimit="10" pointer-events="stroke"/><ellipse cx="692.5" cy="102.5" rx="7.5" ry="7.5" fill="#000000" stroke="#000000" pointer-events="all"/><ellipse cx="133.5" cy="137.5" rx="7.5" ry="7.5" fill="#000000" stroke="#000000" pointer-events="all"/><ellipse cx="308.5" cy="227.5" rx="7.5" ry="7.5" fill="#000000" stroke="#000000" pointer-events="all"/><ellipse cx="458.5" cy="297.5" rx="7.5" ry="7.5" fill="#000000" stroke="#000000" pointer-events="all"/><ellipse cx="587.5" cy="212.5" rx="7.5" ry="7.5" fill="#000000" stroke="#000000" pointer-events="all"/><ellipse cx="408.5" cy="182.5" rx="7.5" ry="7.5" fill="#000000" stroke="#000000" pointer-events="all"/><ellipse cx="677.5" cy="272.5" rx="7.5" ry="7.5" fill="#000000" stroke="#000000" pointer-events="all"/></g></svg>