<svg xmlns="http://www.w3.org/2000/svg" xmlns:xlink="http://www.w3.org/1999/xlink" version="1.1" width="1071px" height="281px" viewBox="-0.5 -0.5 1071 281"><defs><clipPath id="mx-clip-24-54-262-26-0"><rect x="24" y="54" width="262" height="26"/></clipPath><clipPath id="mx-clip-24-80-262-26-0"><rect x="24" y="80" width="262" height="26"/></clipPath><clipPath id="mx-clip-24-106-262-26-0"><rect x="24" y="106" width="262" height="26"/></clipPath><clipPath id="mx-clip-304-55-192-26-0"><rect x="304" y="55" width="192" height="26"/></clipPath><clipPath id="mx-clip-304-81-192-26-0"><rect x="304" y="81" width="192" height="26"/></clipPath><clipPath id="mx-clip-24-132-262-26-0"><rect x="24" y="132" width="262" height="26"/></clipPath><clipPath id="mx-clip-514-55-262-26-0"><rect x="514" y="55" width="262" height="26"/></clipPath><clipPath id="mx-clip-514-81-262-26-0"><rect x="514" y="81" width="262" height="26"/></clipPath><clipPath id="mx-clip-514-106-262-26-0"><rect x="514" y="106" width="262" height="26"/></clipPath><clipPath id="mx-clip-514-132-262-26-0"><rect x="514" y="132" width="262" height="26"/></clipPath><clipPath id="mx-clip-514-157-262-26-0"><rect x="514" y="157" width="262" height="26"/></clipPath><clipPath id="mx-clip-24-158-262-26-0"><rect x="24" y="158" width="262" height="26"/></clipPath><clipPath id="mx-clip-24-184-262-26-0"><rect x="24" y="184" width="262" height="26"/></clipPath><clipPath id="mx-clip-24-210-262-26-0"><rect x="24" y="210" width="262" height="26"/></clipPath><clipPath id="mx-clip-24-236-262-26-0"><rect x="24" y="236" width="262" height="26"/></clipPath><clipPath id="mx-clip-514-183-262-26-0"><rect x="514" y="183" width="262" height="26"/></clipPath><clipPath id="mx-clip-794-55-262-26-0"><rect x="794" y="55" width="262" height="26"/></clipPath><clipPath id="mx-clip-794-81-262-26-0"><rect x="794" y="81" width="262" height="26"/></clipPath><clipPath id="mx-clip-794-106-262-26-0"><rect x="794" y="106" width="262" height="26"/></clipPath><clipPath id="mx-clip-794-132-262-26-0"><rect x="794" y="132" width="262" height="26"/></clipPath><clipPath id="mx-clip-794-157-262-26-0"><rect x="794" y="157" width="262" height="26"/></clipPath><clipPath id="mx-clip-794-183-262-26-0"><rect x="794" y="183" width="262" height="26"/></clipPath></defs><g><rect x="0" y="-0.45" width="1070" height="280" fill="none" stroke="#000000" pointer-events="all"/><path d="M 20 48.55 L 20 22.55 L 290 22.55 L 290 48.55" fill="#ffce9f" stroke="#000000" stroke-miterlimit="10" pointer-events="all"/><path d="M 20 48.55 L 20 126.55 L 290 126.55 L 290 48.55" fill="none" stroke="#000000" stroke-miterlimit="10" pointer-events="none"/><path d="M 20 48.55 L 290 48.55" fill="none" stroke="#000000" stroke-miterlimit="10" pointer-events="none"/><g fill="#000000" font-family="Helvetica" pointer-events="none" text-anchor="middle" font-size="14px"><text x="154.5" y="41.05">Users</text></g><g fill="#000000" font-family="Helvetica" pointer-events="none" clip-path="url(#mx-clip-24-54-262-26-0)" font-size="14px"><text x="25.5" y="68.05">userID:                          INT</text></g><rect x="20" y="74.55" width="270" height="26" fill="none" stroke="#000000" pointer-events="none"/><g fill="#000000" font-family="Helvetica" pointer-events="none" clip-path="url(#mx-clip-24-80-262-26-0)" font-size="14px"><text x="25.5" y="94.05">firstName:                     VARCHAR(15)</text></g><rect x="20" y="100.55" width="270" height="26" fill="none" stroke="#000000" pointer-events="none"/><g fill="#000000" font-family="Helvetica" pointer-events="none" clip-path="url(#mx-clip-24-106-262-26-0)" font-size="14px"><text x="25.5" y="120.05">lastName:                     VARCHAR(15)</text></g><path d="M 300 50 L 300 24 L 500 24 L 500 50" fill="#ffce9f" stroke="#000000" stroke-miterlimit="10" pointer-events="none"/><path d="M 300 50 L 300 102 L 500 102 L 500 50" fill="none" stroke="#000000" stroke-miterlimit="10" pointer-events="none"/><path d="M 300 50 L 500 50" fill="none" stroke="#000000" stroke-miterlimit="10" pointer-events="none"/><g fill="#000000" font-family="Helvetica" pointer-events="none" text-anchor="middle" font-size="14px"><text x="399.5" y="42.5">Followers</text></g><g fill="#000000" font-family="Helvetica" pointer-events="none" clip-path="url(#mx-clip-304-55-192-26-0)" font-size="14px"><text x="305.5" y="69.5">toUserID:          INT</text></g><rect x="300" y="76" width="200" height="26" fill="none" stroke="#000000" pointer-events="none"/><g fill="#000000" font-family="Helvetica" pointer-events="none" clip-path="url(#mx-clip-304-81-192-26-0)" font-size="14px"><text x="305.5" y="95.5">fromUserID:      INT</text></g><rect x="20" y="126.55" width="270" height="26" fill="none" stroke="#000000" pointer-events="none"/><g fill="#000000" font-family="Helvetica" pointer-events="none" clip-path="url(#mx-clip-24-132-262-26-0)" font-size="14px"><text x="25.5" y="146.05">Email:                           VARCHAR(15)</text></g><path d="M 510 50 L 510 24 L 780 24 L 780 50" fill="#ffce9f" stroke="#000000" stroke-miterlimit="10" pointer-events="none"/><path d="M 510 50 L 510 126.67 L 780 126.67 L 780 50" fill="none" stroke="#000000" stroke-miterlimit="10" pointer-events="none"/><path d="M 510 50 L 780 50" fill="none" stroke="#000000" stroke-miterlimit="10" pointer-events="none"/><g fill="#000000" font-family="Helvetica" pointer-events="none" text-anchor="middle" font-size="14px"><text x="644.5" y="42.5">Photo</text></g><g fill="#000000" font-family="Helvetica" pointer-events="none" clip-path="url(#mx-clip-514-55-262-26-0)" font-size="14px"><text x="515.5" y="69.5">photoID:                          INT</text></g><rect x="510" y="75.56" width="270" height="25.56" fill="none" stroke="#000000" pointer-events="none"/><g fill="#000000" font-family="Helvetica" pointer-events="none" clip-path="url(#mx-clip-514-81-262-26-0)" font-size="14px"><text x="515.5" y="95.06">userID:                            INT</text></g><rect x="510" y="101.11" width="270" height="25.56" fill="none" stroke="#000000" pointer-events="none"/><g fill="#000000" font-family="Helvetica" pointer-events="none" clip-path="url(#mx-clip-514-106-262-26-0)" font-size="13px"><text x="515.5" y="119.61">location:                             VARCHAR(15)</text></g><rect x="510" y="126.77" width="270" height="25.56" fill="none" stroke="#000000" pointer-events="none"/><g fill="#000000" font-family="Helvetica" pointer-events="none" clip-path="url(#mx-clip-514-132-262-26-0)" font-size="14px"><text x="515.5" y="146.27">caption:                           VARCHAR(100) </text></g><rect x="510" y="152.32" width="270" height="25.56" fill="none" stroke="#000000" pointer-events="none"/><g fill="#000000" font-family="Helvetica" pointer-events="none" clip-path="url(#mx-clip-514-157-262-26-0)" font-size="14px"><text x="515.5" y="171.82">creationTime:                  VARCHAR(15)</text></g><rect x="20" y="152.55" width="270" height="26" fill="none" stroke="#000000" pointer-events="none"/><g fill="#000000" font-family="Helvetica" pointer-events="none" clip-path="url(#mx-clip-24-158-262-26-0)" font-size="14px"><text x="25.5" y="172.05">Bio:                               VARCHAR(150)</text></g><rect x="20" y="178.55" width="270" height="26" fill="none" stroke="#000000" pointer-events="none"/><g fill="#000000" font-family="Helvetica" pointer-events="none" clip-path="url(#mx-clip-24-184-262-26-0)" font-size="14px"><text x="25.5" y="198.05">Location:                       VARCHAR(15)</text></g><rect x="20" y="204.55" width="270" height="26" fill="none" stroke="#000000" pointer-events="none"/><g fill="#000000" font-family="Helvetica" pointer-events="none" clip-path="url(#mx-clip-24-210-262-26-0)" font-size="14px"><text x="25.5" y="224.05">AccountCreationDate:  DATE</text></g><rect x="20" y="230.55" width="270" height="26" fill="none" stroke="#000000" pointer-events="none"/><g fill="#000000" font-family="Helvetica" pointer-events="none" clip-path="url(#mx-clip-24-236-262-26-0)" font-size="14px"><text x="25.5" y="250.05">LastLogin:                     DATE</text></g><rect x="510" y="177.88" width="270" height="25.56" fill="none" stroke="#000000" pointer-events="none"/><g fill="#000000" font-family="Helvetica" pointer-events="none" clip-path="url(#mx-clip-514-183-262-26-0)" font-size="14px"><text x="515.5" y="197.38">photoPath:                      VARCHAR(256)</text></g><path d="M 790 50 L 790 24 L 1060 24 L 1060 50" fill="#ffce9f" stroke="#000000" stroke-miterlimit="10" pointer-events="none"/><path d="M 790 50 L 790 126.67 L 1060 126.67 L 1060 50" fill="none" stroke="#000000" stroke-miterlimit="10" pointer-events="none"/><path d="M 790 50 L 1060 50" fill="none" stroke="#000000" stroke-miterlimit="10" pointer-events="none"/><g fill="#000000" font-family="Helvetica" pointer-events="none" text-anchor="middle" font-size="14px"><text x="924.5" y="42.5">Video</text></g><g fill="#000000" font-family="Helvetica" pointer-events="none" clip-path="url(#mx-clip-794-55-262-26-0)" font-size="14px"><text x="795.5" y="69.5">videoID:                          INT</text></g><rect x="790" y="75.56" width="270" height="25.56" fill="none" stroke="#000000" pointer-events="none"/><g fill="#000000" font-family="Helvetica" pointer-events="none" clip-path="url(#mx-clip-794-81-262-26-0)" font-size="14px"><text x="795.5" y="95.06">userID:                            INT</text></g><rect x="790" y="101.11" width="270" height="25.56" fill="none" stroke="#000000" pointer-events="none"/><g fill="#000000" font-family="Helvetica" pointer-events="none" clip-path="url(#mx-clip-794-106-262-26-0)" font-size="13px"><text x="795.5" y="119.61">location:                             VARCHAR(15)</text></g><rect x="790" y="126.77" width="270" height="25.56" fill="none" stroke="#000000" pointer-events="none"/><g fill="#000000" font-family="Helvetica" pointer-events="none" clip-path="url(#mx-clip-794-132-262-26-0)" font-size="14px"><text x="795.5" y="146.27">caption:                           VARCHAR(100) </text></g><rect x="790" y="152.32" width="270" height="25.56" fill="none" stroke="#000000" pointer-events="none"/><g fill="#000000" font-family="Helvetica" pointer-events="none" clip-path="url(#mx-clip-794-157-262-26-0)" font-size="14px"><text x="795.5" y="171.82">creationTime:                  VARCHAR(15)</text></g><rect x="790" y="177.88" width="270" height="25.56" fill="none" stroke="#000000" pointer-events="none"/><g fill="#000000" font-family="Helvetica" pointer-events="none" clip-path="url(#mx-clip-794-183-262-26-0)" font-size="14px"><text x="795.5" y="197.38">videoPath:                       VARCHAR(256)</text></g></g></svg>