<svg xmlns="http://www.w3.org/2000/svg" xmlns:xlink="http://www.w3.org/1999/xlink" version="1.1" width="931px" height="281px" viewBox="-0.5 -0.5 931 281"><defs><clipPath id="mx-clip-299-54-202-26-0"><rect x="299" y="54" width="202" height="26"/></clipPath><clipPath id="mx-clip-299-80-202-26-0"><rect x="299" y="80" width="202" height="26"/></clipPath><clipPath id="mx-clip-299-106-202-26-0"><rect x="299" y="106" width="202" height="26"/></clipPath><clipPath id="mx-clip-19-54-262-26-0"><rect x="19" y="54" width="262" height="26"/></clipPath><clipPath id="mx-clip-19-80-262-26-0"><rect x="19" y="80" width="262" height="26"/></clipPath><clipPath id="mx-clip-19-106-262-26-0"><rect x="19" y="106" width="262" height="26"/></clipPath><clipPath id="mx-clip-19-132-262-26-0"><rect x="19" y="132" width="262" height="26"/></clipPath><clipPath id="mx-clip-19-158-262-26-0"><rect x="19" y="158" width="262" height="26"/></clipPath><clipPath id="mx-clip-759-55-152-26-0"><rect x="759" y="55" width="152" height="26"/></clipPath><clipPath id="mx-clip-759-81-152-26-0"><rect x="759" y="81" width="152" height="26"/></clipPath><clipPath id="mx-clip-519-55-222-26-0"><rect x="519" y="55" width="222" height="26"/></clipPath><clipPath id="mx-clip-519-80-222-26-0"><rect x="519" y="80" width="222" height="26"/></clipPath><clipPath id="mx-clip-519-106-222-26-0"><rect x="519" y="106" width="222" height="26"/></clipPath><clipPath id="mx-clip-519-131-222-26-0"><rect x="519" y="131" width="222" height="26"/></clipPath><clipPath id="mx-clip-519-157-222-26-0"><rect x="519" y="157" width="222" height="26"/></clipPath><clipPath id="mx-clip-19-184-262-26-0"><rect x="19" y="184" width="262" height="26"/></clipPath><clipPath id="mx-clip-19-210-262-26-0"><rect x="19" y="210" width="262" height="26"/></clipPath><clipPath id="mx-clip-19-236-262-26-0"><rect x="19" y="236" width="262" height="26"/></clipPath></defs><g><rect x="0" y="0" width="930" height="280" fill="none" stroke="#000000" pointer-events="all"/><path d="M 295 49 L 295 23 L 505 23 L 505 49" fill="#ffce9f" stroke="#000000" stroke-miterlimit="10" pointer-events="all"/><path d="M 295 49 L 295 127 L 505 127 L 505 49" fill="none" stroke="#000000" stroke-miterlimit="10" pointer-events="none"/><path d="M 295 49 L 505 49" fill="none" stroke="#000000" stroke-miterlimit="10" pointer-events="none"/><g fill="#000000" font-family="Helvetica" pointer-events="none" text-anchor="middle" font-size="14px"><text x="399.5" y="41.5">Photo</text></g><g fill="#000000" font-family="Helvetica" pointer-events="none" clip-path="url(#mx-clip-299-54-202-26-0)" font-size="14px"><text x="300.5" y="68.5">Photo_ID:         INT</text></g><rect x="295" y="75" width="210" height="26" fill="none" stroke="#000000" pointer-events="none"/><g fill="#000000" font-family="Helvetica" pointer-events="none" clip-path="url(#mx-clip-299-80-202-26-0)" font-size="14px"><text x="300.5" y="94.5">Place_ID:         INT</text></g><rect x="295" y="101" width="210" height="26" fill="none" stroke="#000000" pointer-events="none"/><g fill="#000000" font-family="Helvetica" pointer-events="none" clip-path="url(#mx-clip-299-106-202-26-0)" font-size="13px"><text x="300.5" y="119.5">Photo_path:     VARCHAR(256)</text></g><path d="M 15 49 L 15 23 L 285 23 L 285 49" fill="#ffce9f" stroke="#000000" stroke-miterlimit="10" pointer-events="none"/><path d="M 15 49 L 15 127 L 285 127 L 285 49" fill="none" stroke="#000000" stroke-miterlimit="10" pointer-events="none"/><path d="M 15 49 L 285 49" fill="none" stroke="#000000" stroke-miterlimit="10" pointer-events="none"/><g fill="#000000" font-family="Helvetica" pointer-events="none" text-anchor="middle" font-size="14px"><text x="149.5" y="41.5">Place</text></g><g fill="#000000" font-family="Helvetica" pointer-events="none" clip-path="url(#mx-clip-19-54-262-26-0)" font-size="14px"><text x="20.5" y="68.5">Place_ID:                     INT</text></g><rect x="15" y="75" width="270" height="26" fill="none" stroke="#000000" pointer-events="none"/><g fill="#000000" font-family="Helvetica" pointer-events="none" clip-path="url(#mx-clip-19-80-262-26-0)" font-size="14px"><text x="20.5" y="94.5">Name_of_place:          VARCHAR(256)</text></g><rect x="15" y="101" width="270" height="26" fill="none" stroke="#000000" pointer-events="none"/><g fill="#000000" font-family="Helvetica" pointer-events="none" clip-path="url(#mx-clip-19-106-262-26-0)" font-size="14px"><text x="20.5" y="120.5">Description_of_place:  VARCHAR(1000)</text></g><rect x="15" y="127" width="270" height="26" fill="none" stroke="#000000" pointer-events="none"/><g fill="#000000" font-family="Helvetica" pointer-events="none" clip-path="url(#mx-clip-19-132-262-26-0)" font-size="14px"><text x="20.5" y="146.5">Category:                     VARCHAR</text></g><rect x="15" y="153" width="270" height="26" fill="none" stroke="#000000" pointer-events="none"/><g fill="#000000" font-family="Helvetica" pointer-events="none" clip-path="url(#mx-clip-19-158-262-26-0)" font-size="14px"><text x="20.5" y="172.5">Latitude:                       DECIMAL</text></g><path d="M 755 49.67 L 755 23.67 L 915 23.67 L 915 49.67" fill="#ffce9f" stroke="#000000" stroke-miterlimit="10" pointer-events="none"/><path d="M 755 49.67 L 755 101.67 L 915 101.67 L 915 49.67" fill="none" stroke="#000000" stroke-miterlimit="10" pointer-events="none"/><path d="M 755 49.67 L 915 49.67" fill="none" stroke="#000000" stroke-miterlimit="10" pointer-events="none"/><g fill="#000000" font-family="Helvetica" pointer-events="none" text-anchor="middle" font-size="14px"><text x="834.5" y="42.17">Users</text></g><g fill="#000000" font-family="Helvetica" pointer-events="none" clip-path="url(#mx-clip-759-55-152-26-0)" font-size="14px"><text x="760.5" y="69.17">User_ID:        INT</text></g><rect x="755" y="75.67" width="160" height="26" fill="none" stroke="#000000" pointer-events="none"/><g fill="#000000" font-family="Helvetica" pointer-events="none" clip-path="url(#mx-clip-759-81-152-26-0)" font-size="13px"><text x="760.5" y="94.17">User_name:    VARCHAR</text></g><path d="M 515 49.67 L 515 23.67 L 745 23.67 L 745 49.67" fill="#ffce9f" stroke="#000000" stroke-miterlimit="10" pointer-events="none"/><path d="M 515 49.67 L 515 126.34 L 745 126.34 L 745 49.67" fill="none" stroke="#000000" stroke-miterlimit="10" pointer-events="none"/><path d="M 515 49.67 L 745 49.67" fill="none" stroke="#000000" stroke-miterlimit="10" pointer-events="none"/><g fill="#000000" font-family="Helvetica" pointer-events="none" text-anchor="middle" font-size="14px"><text x="629.5" y="42.17">Reviews</text></g><g fill="#000000" font-family="Helvetica" pointer-events="none" clip-path="url(#mx-clip-519-55-222-26-0)" font-size="14px"><text x="520.5" y="69.17">Review_ID:                   INT</text></g><rect x="515" y="75.23" width="230" height="25.56" fill="none" stroke="#000000" pointer-events="none"/><g fill="#000000" font-family="Helvetica" pointer-events="none" clip-path="url(#mx-clip-519-80-222-26-0)" font-size="14px"><text x="520.5" y="94.73">Place_ID:                      INT</text></g><rect x="515" y="100.78" width="230" height="25.56" fill="none" stroke="#000000" pointer-events="none"/><g fill="#000000" font-family="Helvetica" pointer-events="none" clip-path="url(#mx-clip-519-106-222-26-0)" font-size="13px"><text x="520.5" y="119.28">User_ID:                          INT</text></g><rect x="515" y="126.44" width="230" height="25.56" fill="none" stroke="#000000" pointer-events="none"/><g fill="#000000" font-family="Helvetica" pointer-events="none" clip-path="url(#mx-clip-519-131-222-26-0)" font-size="14px"><text x="520.5" y="145.94">Review_description:     VARCHAR</text></g><rect x="515" y="151.99" width="230" height="25.56" fill="none" stroke="#000000" pointer-events="none"/><g fill="#000000" font-family="Helvetica" pointer-events="none" clip-path="url(#mx-clip-519-157-222-26-0)" font-size="14px"><text x="520.5" y="171.49">Rating:                          INT</text></g><rect x="15" y="179" width="270" height="26" fill="none" stroke="#000000" pointer-events="none"/><g fill="#000000" font-family="Helvetica" pointer-events="none" clip-path="url(#mx-clip-19-184-262-26-0)" font-size="14px"><text x="20.5" y="198.5">Longitude:                    DECIMAL</text></g><rect x="15" y="205" width="270" height="26" fill="none" stroke="#000000" pointer-events="none"/><g fill="#000000" font-family="Helvetica" pointer-events="none" clip-path="url(#mx-clip-19-210-262-26-0)" font-size="14px"><text x="20.5" y="224.5">Photo_ID:                     INT</text></g><rect x="15" y="231" width="270" height="26" fill="none" stroke="#000000" pointer-events="none"/><g fill="#000000" font-family="Helvetica" pointer-events="none" clip-path="url(#mx-clip-19-236-262-26-0)" font-size="14px"><text x="20.5" y="250.5">Rating:                         DECIMAL</text></g></g></svg>